<svg width="270" height="34" viewBox="0 0 270 34" fill="none" xmlns="http://www.w3.org/2000/svg">
<path d="M153.824 24.2333C152.72 24.2333 151.802 24.0293 151.07 23.6213C150.35 23.2133 149.804 22.6433 149.432 21.9113C149.06 21.1793 148.856 20.3273 148.82 19.3553C148.808 18.8633 148.802 18.3353 148.802 17.7713C148.802 17.2073 148.808 16.6673 148.82 16.1513C148.856 15.1793 149.06 14.3273 149.432 13.5953C149.804 12.8633 150.35 12.2933 151.07 11.8853C151.802 11.4773 152.72 11.2733 153.824 11.2733C154.652 11.2733 155.378 11.3873 156.002 11.6153C156.626 11.8433 157.142 12.1493 157.55 12.5333C157.97 12.9173 158.288 13.3493 158.504 13.8293C158.72 14.2973 158.84 14.7833 158.864 15.2873C158.876 15.3953 158.84 15.4853 158.756 15.5573C158.684 15.6293 158.594 15.6653 158.486 15.6653H157.496C157.388 15.6653 157.292 15.6353 157.208 15.5753C157.136 15.5153 157.082 15.4073 157.046 15.2513C156.842 14.3153 156.458 13.6733 155.894 13.3253C155.342 12.9773 154.646 12.8033 153.806 12.8033C152.846 12.8033 152.084 13.0793 151.52 13.6313C150.956 14.1713 150.65 15.0413 150.602 16.2413C150.566 17.2253 150.566 18.2333 150.602 19.2653C150.65 20.4653 150.956 21.3413 151.52 21.8933C152.084 22.4333 152.846 22.7033 153.806 22.7033C154.646 22.7033 155.342 22.5293 155.894 22.1813C156.458 21.8333 156.842 21.1913 157.046 20.2553C157.082 20.0993 157.136 19.9913 157.208 19.9313C157.292 19.8713 157.388 19.8413 157.496 19.8413H158.486C158.594 19.8413 158.684 19.8773 158.756 19.9493C158.84 20.0213 158.876 20.1113 158.864 20.2193C158.84 20.7233 158.72 21.2153 158.504 21.6953C158.288 22.1633 157.97 22.5893 157.55 22.9733C157.142 23.3573 156.626 23.6633 156.002 23.8913C155.378 24.1193 154.652 24.2333 153.824 24.2333ZM161.456 24.0533C161.336 24.0533 161.234 24.0173 161.15 23.9453C161.078 23.8613 161.042 23.7593 161.042 23.6393V15.1073C161.042 14.9873 161.078 14.8913 161.15 14.8193C161.234 14.7353 161.336 14.6933 161.456 14.6933H162.32C162.44 14.6933 162.536 14.7353 162.608 14.8193C162.68 14.8913 162.716 14.9873 162.716 15.1073V23.6393C162.716 23.7593 162.68 23.8613 162.608 23.9453C162.536 24.0173 162.44 24.0533 162.32 24.0533H161.456ZM161.312 12.9473C161.192 12.9473 161.09 12.9113 161.006 12.8393C160.934 12.7553 160.898 12.6533 160.898 12.5333V11.5613C160.898 11.4413 160.934 11.3453 161.006 11.2733C161.09 11.1893 161.192 11.1473 161.312 11.1473H162.446C162.566 11.1473 162.662 11.1893 162.734 11.2733C162.818 11.3453 162.86 11.4413 162.86 11.5613V12.5333C162.86 12.6533 162.818 12.7553 162.734 12.8393C162.662 12.9113 162.566 12.9473 162.446 12.9473H161.312ZM169.163 24.2333C167.927 24.2333 166.943 23.8553 166.211 23.0993C165.479 22.3313 165.077 21.2873 165.005 19.9673C164.993 19.8113 164.987 19.6133 164.987 19.3733C164.987 19.1213 164.993 18.9173 165.005 18.7613C165.053 17.9093 165.251 17.1653 165.599 16.5293C165.947 15.8813 166.421 15.3833 167.021 15.0353C167.633 14.6873 168.347 14.5133 169.163 14.5133C170.075 14.5133 170.837 14.7053 171.449 15.0893C172.073 15.4733 172.547 16.0193 172.871 16.7273C173.195 17.4353 173.357 18.2633 173.357 19.2113V19.5173C173.357 19.6493 173.315 19.7513 173.231 19.8233C173.159 19.8953 173.063 19.9313 172.943 19.9313H166.715C166.715 19.9433 166.715 19.9673 166.715 20.0033C166.715 20.0393 166.715 20.0693 166.715 20.0933C166.739 20.5853 166.847 21.0473 167.039 21.4793C167.231 21.8993 167.507 22.2413 167.867 22.5053C168.227 22.7693 168.659 22.9013 169.163 22.9013C169.595 22.9013 169.955 22.8353 170.243 22.7033C170.531 22.5713 170.765 22.4273 170.945 22.2713C171.125 22.1033 171.245 21.9773 171.305 21.8933C171.413 21.7373 171.497 21.6473 171.557 21.6233C171.617 21.5873 171.713 21.5693 171.845 21.5693H172.709C172.829 21.5693 172.925 21.6053 172.997 21.6773C173.081 21.7373 173.117 21.8273 173.105 21.9473C173.093 22.1273 172.997 22.3493 172.817 22.6133C172.637 22.8653 172.379 23.1173 172.043 23.3693C171.707 23.6213 171.299 23.8313 170.819 23.9993C170.339 24.1553 169.787 24.2333 169.163 24.2333ZM166.715 18.6893H171.647V18.6353C171.647 18.0953 171.545 17.6153 171.341 17.1953C171.149 16.7753 170.867 16.4453 170.495 16.2053C170.123 15.9533 169.679 15.8273 169.163 15.8273C168.647 15.8273 168.203 15.9533 167.831 16.2053C167.471 16.4453 167.195 16.7753 167.003 17.1953C166.811 17.6153 166.715 18.0953 166.715 18.6353V18.6893ZM175.923 24.0533C175.803 24.0533 175.701 24.0173 175.617 23.9453C175.545 23.8613 175.509 23.7593 175.509 23.6393V15.1073C175.509 14.9873 175.545 14.8913 175.617 14.8193C175.701 14.7353 175.803 14.6933 175.923 14.6933H176.769C176.889 14.6933 176.985 14.7353 177.057 14.8193C177.141 14.8913 177.183 14.9873 177.183 15.1073V15.8993C177.495 15.4913 177.885 15.1613 178.353 14.9093C178.833 14.6453 179.445 14.5133 180.189 14.5133C180.969 14.5133 181.629 14.6873 182.169 15.0353C182.721 15.3713 183.135 15.8453 183.411 16.4573C183.687 17.0573 183.825 17.7593 183.825 18.5633V23.6393C183.825 23.7593 183.789 23.8613 183.717 23.9453C183.645 24.0173 183.549 24.0533 183.429 24.0533H182.529C182.409 24.0533 182.307 24.0173 182.223 23.9453C182.151 23.8613 182.115 23.7593 182.115 23.6393V18.6533C182.115 17.8133 181.911 17.1593 181.503 16.6913C181.095 16.2113 180.495 15.9713 179.703 15.9713C178.959 15.9713 178.359 16.2113 177.903 16.6913C177.459 17.1593 177.237 17.8133 177.237 18.6533V23.6393C177.237 23.7593 177.195 23.8613 177.111 23.9453C177.039 24.0173 176.943 24.0533 176.823 24.0533H175.923ZM189.956 24.0533C189.284 24.0533 188.738 23.9273 188.318 23.6753C187.898 23.4113 187.592 23.0453 187.4 22.5773C187.208 22.0973 187.112 21.5333 187.112 20.8853V16.1333H185.708C185.588 16.1333 185.486 16.0973 185.402 16.0253C185.33 15.9413 185.294 15.8393 185.294 15.7193V15.1073C185.294 14.9873 185.33 14.8913 185.402 14.8193C185.486 14.7353 185.588 14.6933 185.708 14.6933H187.112V11.6873C187.112 11.5673 187.148 11.4713 187.22 11.3993C187.304 11.3153 187.406 11.2733 187.526 11.2733H188.372C188.492 11.2733 188.588 11.3153 188.66 11.3993C188.744 11.4713 188.786 11.5673 188.786 11.6873V14.6933H191.018C191.138 14.6933 191.234 14.7353 191.306 14.8193C191.39 14.8913 191.432 14.9873 191.432 15.1073V15.7193C191.432 15.8393 191.39 15.9413 191.306 16.0253C191.234 16.0973 191.138 16.1333 191.018 16.1333H188.786V20.7593C188.786 21.3233 188.882 21.7673 189.074 22.0913C189.266 22.4153 189.608 22.5773 190.1 22.5773H191.198C191.318 22.5773 191.414 22.6193 191.486 22.7033C191.57 22.7753 191.612 22.8713 191.612 22.9913V23.6393C191.612 23.7593 191.57 23.8613 191.486 23.9453C191.414 24.0173 191.318 24.0533 191.198 24.0533H189.956ZM198.394 24.0533C198.274 24.0533 198.172 24.0173 198.088 23.9453C198.016 23.8613 197.98 23.7593 197.98 23.6393V11.8853C197.98 11.7533 198.016 11.6513 198.088 11.5793C198.172 11.4953 198.274 11.4533 198.394 11.4533H199.294C199.438 11.4533 199.546 11.4893 199.618 11.5613C199.69 11.6333 199.732 11.6933 199.744 11.7413L203.56 19.0133L207.394 11.7413C207.418 11.6933 207.46 11.6333 207.52 11.5613C207.592 11.4893 207.7 11.4533 207.844 11.4533H208.726C208.858 11.4533 208.96 11.4953 209.032 11.5793C209.116 11.6513 209.158 11.7533 209.158 11.8853V23.6393C209.158 23.7593 209.116 23.8613 209.032 23.9453C208.96 24.0173 208.858 24.0533 208.726 24.0533H207.844C207.724 24.0533 207.622 24.0173 207.538 23.9453C207.466 23.8613 207.43 23.7593 207.43 23.6393V14.7833L204.424 20.6513C204.376 20.7713 204.304 20.8673 204.208 20.9393C204.112 20.9993 203.992 21.0293 203.848 21.0293H203.29C203.134 21.0293 203.008 20.9993 202.912 20.9393C202.828 20.8673 202.756 20.7713 202.696 20.6513L199.69 14.7833V23.6393C199.69 23.7593 199.648 23.8613 199.564 23.9453C199.492 24.0173 199.396 24.0533 199.276 24.0533H198.394ZM214.647 24.2333C214.047 24.2333 213.501 24.1133 213.009 23.8733C212.517 23.6333 212.121 23.3093 211.821 22.9013C211.521 22.4933 211.371 22.0313 211.371 21.5153C211.371 20.6873 211.707 20.0273 212.379 19.5353C213.051 19.0433 213.927 18.7193 215.007 18.5633L217.689 18.1853V17.6633C217.689 17.0873 217.521 16.6373 217.185 16.3133C216.861 15.9893 216.327 15.8273 215.583 15.8273C215.043 15.8273 214.605 15.9353 214.269 16.1513C213.945 16.3673 213.717 16.6433 213.585 16.9793C213.513 17.1593 213.387 17.2493 213.207 17.2493H212.397C212.265 17.2493 212.163 17.2133 212.091 17.1413C212.031 17.0573 212.001 16.9613 212.001 16.8533C212.001 16.6733 212.067 16.4513 212.199 16.1873C212.343 15.9233 212.559 15.6653 212.847 15.4133C213.135 15.1613 213.501 14.9513 213.945 14.7833C214.401 14.6033 214.953 14.5133 215.601 14.5133C216.321 14.5133 216.927 14.6093 217.419 14.8013C217.911 14.9813 218.295 15.2273 218.571 15.5393C218.859 15.8513 219.063 16.2053 219.183 16.6013C219.315 16.9973 219.381 17.3993 219.381 17.8073V23.6393C219.381 23.7593 219.339 23.8613 219.255 23.9453C219.183 24.0173 219.087 24.0533 218.967 24.0533H218.139C218.007 24.0533 217.905 24.0173 217.833 23.9453C217.761 23.8613 217.725 23.7593 217.725 23.6393V22.8653C217.569 23.0813 217.359 23.2973 217.095 23.5133C216.831 23.7173 216.501 23.8913 216.105 24.0353C215.709 24.1673 215.223 24.2333 214.647 24.2333ZM215.025 22.8833C215.517 22.8833 215.967 22.7813 216.375 22.5773C216.783 22.3613 217.101 22.0313 217.329 21.5873C217.569 21.1433 217.689 20.5853 217.689 19.9133V19.4093L215.601 19.7153C214.749 19.8353 214.107 20.0393 213.675 20.3273C213.243 20.6033 213.027 20.9573 213.027 21.3893C213.027 21.7253 213.123 22.0073 213.315 22.2353C213.519 22.4513 213.771 22.6133 214.071 22.7213C214.383 22.8293 214.701 22.8833 215.025 22.8833ZM222.382 24.0533C222.262 24.0533 222.16 24.0173 222.076 23.9453C222.004 23.8613 221.968 23.7593 221.968 23.6393V15.1073C221.968 14.9873 222.004 14.8913 222.076 14.8193C222.16 14.7353 222.262 14.6933 222.382 14.6933H223.228C223.348 14.6933 223.444 14.7353 223.516 14.8193C223.6 14.8913 223.642 14.9873 223.642 15.1073V15.8993C223.954 15.4913 224.344 15.1613 224.812 14.9093C225.292 14.6453 225.904 14.5133 226.648 14.5133C227.428 14.5133 228.088 14.6873 228.628 15.0353C229.18 15.3713 229.594 15.8453 229.87 16.4573C230.146 17.0573 230.284 17.7593 230.284 18.5633V23.6393C230.284 23.7593 230.248 23.8613 230.176 23.9453C230.104 24.0173 230.008 24.0533 229.888 24.0533H228.988C228.868 24.0533 228.766 24.0173 228.682 23.9453C228.61 23.8613 228.574 23.7593 228.574 23.6393V18.6533C228.574 17.8133 228.37 17.1593 227.962 16.6913C227.554 16.2113 226.954 15.9713 226.162 15.9713C225.418 15.9713 224.818 16.2113 224.362 16.6913C223.918 17.1593 223.696 17.8133 223.696 18.6533V23.6393C223.696 23.7593 223.654 23.8613 223.57 23.9453C223.498 24.0173 223.402 24.0533 223.282 24.0533H222.382ZM235.494 24.2333C234.894 24.2333 234.348 24.1133 233.856 23.8733C233.364 23.6333 232.968 23.3093 232.668 22.9013C232.368 22.4933 232.218 22.0313 232.218 21.5153C232.218 20.6873 232.554 20.0273 233.226 19.5353C233.898 19.0433 234.774 18.7193 235.854 18.5633L238.536 18.1853V17.6633C238.536 17.0873 238.368 16.6373 238.032 16.3133C237.708 15.9893 237.174 15.8273 236.43 15.8273C235.89 15.8273 235.452 15.9353 235.116 16.1513C234.792 16.3673 234.564 16.6433 234.432 16.9793C234.36 17.1593 234.234 17.2493 234.054 17.2493H233.244C233.112 17.2493 233.01 17.2133 232.938 17.1413C232.878 17.0573 232.848 16.9613 232.848 16.8533C232.848 16.6733 232.914 16.4513 233.046 16.1873C233.19 15.9233 233.406 15.6653 233.694 15.4133C233.982 15.1613 234.348 14.9513 234.792 14.7833C235.248 14.6033 235.8 14.5133 236.448 14.5133C237.168 14.5133 237.774 14.6093 238.266 14.8013C238.758 14.9813 239.142 15.2273 239.418 15.5393C239.706 15.8513 239.91 16.2053 240.03 16.6013C240.162 16.9973 240.228 17.3993 240.228 17.8073V23.6393C240.228 23.7593 240.186 23.8613 240.102 23.9453C240.03 24.0173 239.934 24.0533 239.814 24.0533H238.986C238.854 24.0533 238.752 24.0173 238.68 23.9453C238.608 23.8613 238.572 23.7593 238.572 23.6393V22.8653C238.416 23.0813 238.206 23.2973 237.942 23.5133C237.678 23.7173 237.348 23.8913 236.952 24.0353C236.556 24.1673 236.07 24.2333 235.494 24.2333ZM235.872 22.8833C236.364 22.8833 236.814 22.7813 237.222 22.5773C237.63 22.3613 237.948 22.0313 238.176 21.5873C238.416 21.1433 238.536 20.5853 238.536 19.9133V19.4093L236.448 19.7153C235.596 19.8353 234.954 20.0393 234.522 20.3273C234.09 20.6033 233.874 20.9573 233.874 21.3893C233.874 21.7253 233.97 22.0073 234.162 22.2353C234.366 22.4513 234.618 22.6133 234.918 22.7213C235.23 22.8293 235.548 22.8833 235.872 22.8833ZM246.65 28.0133C245.834 28.0133 245.162 27.9053 244.634 27.6893C244.118 27.4733 243.71 27.2093 243.41 26.8973C243.122 26.5973 242.912 26.2913 242.78 25.9793C242.66 25.6793 242.594 25.4393 242.582 25.2593C242.57 25.1393 242.606 25.0373 242.69 24.9533C242.786 24.8693 242.888 24.8273 242.996 24.8273H243.86C243.968 24.8273 244.058 24.8513 244.13 24.8993C244.202 24.9473 244.262 25.0493 244.31 25.2053C244.382 25.3853 244.49 25.5833 244.634 25.7993C244.778 26.0273 245 26.2193 245.3 26.3753C245.6 26.5433 246.02 26.6273 246.56 26.6273C247.124 26.6273 247.598 26.5493 247.982 26.3933C248.366 26.2493 248.654 25.9853 248.846 25.6013C249.05 25.2293 249.152 24.7133 249.152 24.0533V22.8293C248.864 23.2013 248.486 23.5133 248.018 23.7653C247.55 24.0053 246.962 24.1253 246.254 24.1253C245.582 24.1253 245.006 24.0113 244.526 23.7833C244.046 23.5433 243.65 23.2253 243.338 22.8293C243.038 22.4213 242.81 21.9593 242.654 21.4433C242.51 20.9273 242.426 20.3873 242.402 19.8233C242.39 19.4873 242.39 19.1573 242.402 18.8333C242.426 18.2693 242.51 17.7293 242.654 17.2133C242.81 16.6973 243.038 16.2353 243.338 15.8273C243.65 15.4193 244.046 15.1013 244.526 14.8733C245.006 14.6333 245.582 14.5133 246.254 14.5133C246.974 14.5133 247.568 14.6513 248.036 14.9273C248.516 15.1913 248.906 15.5153 249.206 15.8993V15.1253C249.206 15.0053 249.242 14.9033 249.314 14.8193C249.398 14.7353 249.5 14.6933 249.62 14.6933H250.448C250.568 14.6933 250.67 14.7353 250.754 14.8193C250.838 14.9033 250.88 15.0053 250.88 15.1253V23.8553C250.88 24.6593 250.742 25.3733 250.466 25.9973C250.202 26.6213 249.758 27.1133 249.134 27.4733C248.522 27.8333 247.694 28.0133 246.65 28.0133ZM246.614 22.6853C247.214 22.6853 247.694 22.5473 248.054 22.2713C248.426 21.9953 248.696 21.6473 248.864 21.2273C249.044 20.8073 249.14 20.3813 249.152 19.9493C249.164 19.7813 249.17 19.5773 249.17 19.3373C249.17 19.0853 249.164 18.8753 249.152 18.7073C249.14 18.2753 249.044 17.8493 248.864 17.4293C248.696 17.0093 248.426 16.6613 248.054 16.3853C247.694 16.1093 247.214 15.9713 246.614 15.9713C246.014 15.9713 245.534 16.1093 245.174 16.3853C244.814 16.6493 244.556 17.0033 244.4 17.4473C244.244 17.8793 244.154 18.3473 244.13 18.8513C244.118 19.1633 244.118 19.4813 244.13 19.8053C244.154 20.3093 244.244 20.7833 244.4 21.2273C244.556 21.6593 244.814 22.0133 245.174 22.2893C245.534 22.5533 246.014 22.6853 246.614 22.6853ZM257.282 24.2333C256.046 24.2333 255.062 23.8553 254.33 23.0993C253.598 22.3313 253.196 21.2873 253.124 19.9673C253.112 19.8113 253.106 19.6133 253.106 19.3733C253.106 19.1213 253.112 18.9173 253.124 18.7613C253.172 17.9093 253.37 17.1653 253.718 16.5293C254.066 15.8813 254.54 15.3833 255.14 15.0353C255.752 14.6873 256.466 14.5133 257.282 14.5133C258.194 14.5133 258.956 14.7053 259.568 15.0893C260.192 15.4733 260.666 16.0193 260.99 16.7273C261.314 17.4353 261.476 18.2633 261.476 19.2113V19.5173C261.476 19.6493 261.434 19.7513 261.35 19.8233C261.278 19.8953 261.182 19.9313 261.062 19.9313H254.834C254.834 19.9433 254.834 19.9673 254.834 20.0033C254.834 20.0393 254.834 20.0693 254.834 20.0933C254.858 20.5853 254.966 21.0473 255.158 21.4793C255.35 21.8993 255.626 22.2413 255.986 22.5053C256.346 22.7693 256.778 22.9013 257.282 22.9013C257.714 22.9013 258.074 22.8353 258.362 22.7033C258.65 22.5713 258.884 22.4273 259.064 22.2713C259.244 22.1033 259.364 21.9773 259.424 21.8933C259.532 21.7373 259.616 21.6473 259.676 21.6233C259.736 21.5873 259.832 21.5693 259.964 21.5693H260.828C260.948 21.5693 261.044 21.6053 261.116 21.6773C261.2 21.7373 261.236 21.8273 261.224 21.9473C261.212 22.1273 261.116 22.3493 260.936 22.6133C260.756 22.8653 260.498 23.1173 260.162 23.3693C259.826 23.6213 259.418 23.8313 258.938 23.9993C258.458 24.1553 257.906 24.2333 257.282 24.2333ZM254.834 18.6893H259.766V18.6353C259.766 18.0953 259.664 17.6153 259.46 17.1953C259.268 16.7753 258.986 16.4453 258.614 16.2053C258.242 15.9533 257.798 15.8273 257.282 15.8273C256.766 15.8273 256.322 15.9533 255.95 16.2053C255.59 16.4453 255.314 16.7753 255.122 17.1953C254.93 17.6153 254.834 18.0953 254.834 18.6353V18.6893ZM264.042 24.0533C263.922 24.0533 263.82 24.0173 263.736 23.9453C263.664 23.8613 263.628 23.7593 263.628 23.6393V15.1253C263.628 15.0053 263.664 14.9033 263.736 14.8193C263.82 14.7353 263.922 14.6933 264.042 14.6933H264.87C264.99 14.6933 265.092 14.7353 265.176 14.8193C265.26 14.9033 265.302 15.0053 265.302 15.1253V15.9173C265.542 15.5093 265.872 15.2033 266.292 14.9993C266.712 14.7953 267.216 14.6933 267.804 14.6933H268.524C268.644 14.6933 268.74 14.7353 268.812 14.8193C268.884 14.8913 268.92 14.9873 268.92 15.1073V15.8453C268.92 15.9653 268.884 16.0613 268.812 16.1333C268.74 16.2053 268.644 16.2413 268.524 16.2413H267.444C266.796 16.2413 266.286 16.4333 265.914 16.8173C265.542 17.1893 265.356 17.6993 265.356 18.3473V23.6393C265.356 23.7593 265.314 23.8613 265.23 23.9453C265.146 24.0173 265.044 24.0533 264.924 24.0533H264.042Z" fill="#2C3B58"/>
<path d="M25.4574 4.85259C25.5882 4.09636 25.4585 3.31792 25.0895 2.64572C24.7206 1.97351 24.1345 1.4477 23.4279 1.15503C22.7213 0.862373 21.9365 0.82035 21.203 1.0359C20.4694 1.25145 19.8309 1.71169 19.3929 2.34068L13.0048 11.5046L6.61518 2.34068C6.17759 1.71104 5.53919 1.25017 4.80548 1.03423C4.07176 0.818278 3.28664 0.86018 2.57985 1.153C1.87306 1.44583 1.2869 1.97205 0.918225 2.64472C0.549552 3.31739 0.420431 4.09625 0.552201 4.85259C0.5188 5.04251 0.501339 5.23491 0.5 5.42776V30.1888C0.5 31.0842 0.854193 31.9429 1.48466 32.5761C2.11513 33.2092 2.97023 33.5649 3.86185 33.5649C4.75347 33.5649 5.60857 33.2092 6.23904 32.5761C6.86951 31.9429 7.22371 31.0842 7.22371 30.1888V14.9871L10.2515 19.3308C10.2604 19.3443 10.2709 19.3563 10.2813 19.3698C10.341 19.4522 10.4036 19.5331 10.4722 19.6109C10.4931 19.6334 10.5125 19.6589 10.5319 19.6828C10.6139 19.7717 10.7005 19.8562 10.7914 19.936L10.8764 20.0034C10.9405 20.0573 11.0062 20.1112 11.0763 20.1607L11.1016 20.1771L11.1911 20.2355C11.2687 20.285 11.3477 20.3314 11.4283 20.3733C11.4521 20.3868 11.4745 20.4018 11.4999 20.4138C11.6048 20.4658 11.7123 20.5123 11.822 20.5531L11.8742 20.5741C11.9856 20.6144 12.0991 20.6484 12.2143 20.6759H12.2247C12.3438 20.704 12.4643 20.7255 12.5857 20.7403H12.6438C12.7627 20.7541 12.8822 20.7611 13.0018 20.7613C13.1219 20.7611 13.2419 20.7541 13.3613 20.7403H13.4194C13.5408 20.7254 13.6613 20.7039 13.7804 20.6759H13.7923C13.9067 20.6498 14.0193 20.6163 14.1294 20.5756L14.1831 20.5546C14.2924 20.5141 14.3995 20.4676 14.5037 20.4153C14.5306 20.4033 14.553 20.3883 14.5768 20.3748C14.6574 20.3329 14.7349 20.2865 14.814 20.237L14.9035 20.1786L14.9288 20.1621C14.9989 20.1127 15.0646 20.0588 15.1302 20.0049C15.1585 19.9824 15.1869 19.9614 15.2122 19.9375C15.3039 19.8581 15.391 19.7736 15.4732 19.6843C15.4924 19.6593 15.5128 19.6353 15.5344 19.6124C15.6015 19.5345 15.6656 19.4537 15.7238 19.3713C15.7347 19.359 15.7446 19.346 15.7536 19.3323L18.7814 14.9886V30.1888C18.7814 30.6321 18.8683 31.0712 19.0373 31.4808C19.2062 31.8904 19.4539 32.2626 19.7661 32.5761C20.0782 32.8896 20.4488 33.1383 20.8567 33.308C21.2646 33.4776 21.7018 33.5649 22.1432 33.5649C22.5847 33.5649 23.0219 33.4776 23.4298 33.308C23.8377 33.1383 24.2083 32.8896 24.5204 32.5761C24.8326 32.2626 25.0802 31.8904 25.2492 31.4808C25.4181 31.0712 25.5051 30.6321 25.5051 30.1888V5.42177C25.5056 5.23101 25.4897 5.04057 25.4574 4.85259Z" fill="#2C3B58"/>
<path d="M50.8505 8.61775C50.0729 8.61745 49.3128 8.38556 48.6663 7.9514C48.0199 7.51724 47.5162 6.90031 47.219 6.17864C46.9217 5.45698 46.8442 4.663 46.9964 3.89711C47.1485 3.13122 47.5233 2.42784 48.0735 1.87592C48.6237 1.32401 49.3246 0.94835 50.0874 0.796463C50.8502 0.644575 51.6407 0.723282 52.359 1.02263C53.0773 1.32197 53.691 1.82851 54.1226 2.47817C54.5542 3.12783 54.7842 3.89144 54.7836 4.67241C54.7834 5.19084 54.6815 5.70415 54.4837 6.18303C54.286 6.66191 53.9962 7.09696 53.6309 7.46334C53.2657 7.82971 52.8322 8.12024 52.3551 8.31832C51.878 8.51639 51.3668 8.61814 50.8505 8.61775Z" fill="#2D9CDB"/>
<path d="M42.6658 11.2775L36.2762 2.11514C35.8382 1.48615 35.1997 1.02591 34.4661 0.810359C33.7326 0.59481 32.9478 0.636834 32.2412 0.929495C31.5346 1.22216 30.9485 1.74797 30.5796 2.42018C30.2106 3.09238 30.0809 3.87082 30.2117 4.62705L36.8847 14.76L39.2622 18.1691L39.2428 30.0965C39.2391 30.5399 39.3224 30.9797 39.4879 31.3907C39.6534 31.8018 39.8979 32.176 40.2074 32.4922C40.517 32.8083 40.8855 33.0602 41.292 33.2333C41.6984 33.4064 42.1348 33.4974 42.5763 33.5012C43.0178 33.5049 43.4557 33.4213 43.865 33.2551C44.2743 33.0889 44.647 32.8433 44.9618 32.5324C45.2766 32.2216 45.5274 31.8515 45.6998 31.4433C45.8721 31.0351 45.9628 30.5968 45.9665 30.1535L45.9859 16.2099" fill="#2C3B58"/>
<path d="M85.2364 21.1782C84.4778 20.7091 83.565 20.5615 82.6981 20.7676C81.8313 20.9737 81.0813 21.5168 80.6127 22.2776C79.5887 23.946 78.0507 25.2332 76.232 25.944C74.4133 26.6547 72.4134 26.7502 70.5358 26.2157C68.6583 25.6813 67.0056 24.5463 65.8287 22.9829C64.6519 21.4195 64.0151 19.5132 64.0151 17.5533C64.0151 15.5935 64.6519 13.6872 65.8287 12.1238C67.0056 10.5604 68.6583 9.42538 70.5358 8.89096C72.4134 8.35654 74.4133 8.45196 76.232 9.16271C78.0507 9.87347 79.5887 11.1607 80.6127 12.8291C80.8421 13.2118 81.1448 13.5449 81.5032 13.8092C81.8617 14.0736 82.2689 14.2638 82.7011 14.369C83.1333 14.4742 83.582 14.4923 84.0212 14.4221C84.4604 14.3519 84.8814 14.1949 85.2597 13.9602C85.6381 13.7255 85.9663 13.4177 86.2254 13.0547C86.4845 12.6917 86.6693 12.2807 86.7691 11.8454C86.8689 11.4102 86.8817 10.9594 86.8068 10.5191C86.7318 10.0789 86.5707 9.65796 86.3326 9.2807C84.5397 6.36141 81.8474 4.10925 78.6643 2.86605C75.4812 1.62286 71.9811 1.45651 68.6953 2.39227C65.4096 3.32803 62.5175 5.3148 60.4581 8.051C58.3987 10.7872 57.2844 14.1235 57.2844 17.5533C57.2844 20.9832 58.3987 24.3195 60.4581 27.0557C62.5175 29.7919 65.4096 31.7787 68.6953 32.7144C71.9811 33.6502 75.4812 33.4838 78.6643 32.2406C81.8474 30.9974 84.5397 28.7453 86.3326 25.826C86.5647 25.4486 86.7204 25.0289 86.791 24.591C86.8615 24.1531 86.8454 23.7056 86.7435 23.2739C86.6417 22.8423 86.4562 22.435 86.1976 22.0754C85.939 21.7158 85.6124 21.4109 85.2364 21.1782Z" fill="#2C3B58"/>
<path d="M107.532 33.2412C104.429 33.2412 101.395 32.317 98.8147 30.5856C96.2344 28.8541 94.2233 26.3931 93.0357 23.5139C91.8481 20.6346 91.5374 17.4663 92.1428 14.4096C92.7482 11.353 94.2426 8.54528 96.437 6.34157C98.6314 4.13785 101.427 2.6371 104.471 2.0291C107.515 1.4211 110.669 1.73315 113.537 2.92579C116.404 4.11843 118.854 6.1381 120.578 8.72939C122.302 11.3207 123.223 14.3672 123.223 17.4837C123.218 21.6614 121.563 25.6666 118.622 28.6207C115.68 31.5747 111.692 33.2364 107.532 33.2412ZM107.532 8.48015C105.759 8.48015 104.025 9.0082 102.551 9.99753C101.077 10.9869 99.9276 12.393 99.249 14.0382C98.5704 15.6834 98.3929 17.4937 98.7388 19.2403C99.0847 20.9868 99.9386 22.5911 101.192 23.8503C102.446 25.1094 104.044 25.9669 105.783 26.3143C107.522 26.6617 109.325 26.4834 110.963 25.802C112.601 25.1205 114.001 23.9665 114.986 22.4859C115.972 21.0052 116.497 19.2645 116.497 17.4837C116.495 15.0967 115.549 12.8082 113.868 11.1203C112.188 9.4324 109.909 8.48293 107.532 8.48015Z" fill="#2C3B58"/>
</svg>
