<svg width="122" height="57" viewBox="0 0 122 57" fill="none" xmlns="http://www.w3.org/2000/svg">
<path d="M6.39595 53.18C5.29195 53.18 4.37395 52.976 3.64195 52.568C2.92195 52.16 2.37595 51.59 2.00395 50.858C1.63195 50.126 1.42795 49.274 1.39195 48.302C1.37995 47.81 1.37395 47.282 1.37395 46.718C1.37395 46.154 1.37995 45.614 1.39195 45.098C1.42795 44.126 1.63195 43.274 2.00395 42.542C2.37595 41.81 2.92195 41.24 3.64195 40.832C4.37395 40.424 5.29195 40.22 6.39595 40.22C7.22395 40.22 7.94995 40.334 8.57395 40.562C9.19795 40.79 9.71395 41.096 10.1219 41.48C10.5419 41.864 10.8599 42.296 11.0759 42.776C11.2919 43.244 11.4119 43.73 11.4359 44.234C11.4479 44.342 11.4119 44.432 11.3279 44.504C11.2559 44.576 11.1659 44.612 11.0579 44.612H10.0679C9.95995 44.612 9.86395 44.582 9.77995 44.522C9.70795 44.462 9.65395 44.354 9.61795 44.198C9.41395 43.262 9.02995 42.62 8.46595 42.272C7.91395 41.924 7.21795 41.75 6.37795 41.75C5.41795 41.75 4.65595 42.026 4.09195 42.578C3.52795 43.118 3.22195 43.988 3.17395 45.188C3.13795 46.172 3.13795 47.18 3.17395 48.212C3.22195 49.412 3.52795 50.288 4.09195 50.84C4.65595 51.38 5.41795 51.65 6.37795 51.65C7.21795 51.65 7.91395 51.476 8.46595 51.128C9.02995 50.78 9.41395 50.138 9.61795 49.202C9.65395 49.046 9.70795 48.938 9.77995 48.878C9.86395 48.818 9.95995 48.788 10.0679 48.788H11.0579C11.1659 48.788 11.2559 48.824 11.3279 48.896C11.4119 48.968 11.4479 49.058 11.4359 49.166C11.4119 49.67 11.2919 50.162 11.0759 50.642C10.8599 51.11 10.5419 51.536 10.1219 51.92C9.71395 52.304 9.19795 52.61 8.57395 52.838C7.94995 53.066 7.22395 53.18 6.39595 53.18ZM14.0282 53C13.9082 53 13.8062 52.964 13.7222 52.892C13.6502 52.808 13.6142 52.706 13.6142 52.586V44.054C13.6142 43.934 13.6502 43.838 13.7222 43.766C13.8062 43.682 13.9082 43.64 14.0282 43.64H14.8922C15.0122 43.64 15.1082 43.682 15.1802 43.766C15.2522 43.838 15.2882 43.934 15.2882 44.054V52.586C15.2882 52.706 15.2522 52.808 15.1802 52.892C15.1082 52.964 15.0122 53 14.8922 53H14.0282ZM13.8842 41.894C13.7642 41.894 13.6622 41.858 13.5782 41.786C13.5062 41.702 13.4702 41.6 13.4702 41.48V40.508C13.4702 40.388 13.5062 40.292 13.5782 40.22C13.6622 40.136 13.7642 40.094 13.8842 40.094H15.0182C15.1382 40.094 15.2342 40.136 15.3062 40.22C15.3902 40.292 15.4322 40.388 15.4322 40.508V41.48C15.4322 41.6 15.3902 41.702 15.3062 41.786C15.2342 41.858 15.1382 41.894 15.0182 41.894H13.8842ZM21.7348 53.18C20.4988 53.18 19.5148 52.802 18.7828 52.046C18.0508 51.278 17.6488 50.234 17.5768 48.914C17.5648 48.758 17.5588 48.56 17.5588 48.32C17.5588 48.068 17.5648 47.864 17.5768 47.708C17.6248 46.856 17.8228 46.112 18.1708 45.476C18.5188 44.828 18.9928 44.33 19.5928 43.982C20.2048 43.634 20.9188 43.46 21.7348 43.46C22.6468 43.46 23.4088 43.652 24.0208 44.036C24.6448 44.42 25.1188 44.966 25.4428 45.674C25.7668 46.382 25.9288 47.21 25.9288 48.158V48.464C25.9288 48.596 25.8868 48.698 25.8028 48.77C25.7308 48.842 25.6348 48.878 25.5148 48.878H19.2868C19.2868 48.89 19.2868 48.914 19.2868 48.95C19.2868 48.986 19.2868 49.016 19.2868 49.04C19.3108 49.532 19.4188 49.994 19.6108 50.426C19.8028 50.846 20.0788 51.188 20.4388 51.452C20.7988 51.716 21.2308 51.848 21.7348 51.848C22.1668 51.848 22.5268 51.782 22.8148 51.65C23.1028 51.518 23.3368 51.374 23.5168 51.218C23.6968 51.05 23.8168 50.924 23.8768 50.84C23.9848 50.684 24.0688 50.594 24.1288 50.57C24.1888 50.534 24.2848 50.516 24.4168 50.516H25.2808C25.4008 50.516 25.4968 50.552 25.5688 50.624C25.6528 50.684 25.6888 50.774 25.6768 50.894C25.6648 51.074 25.5688 51.296 25.3888 51.56C25.2088 51.812 24.9508 52.064 24.6148 52.316C24.2788 52.568 23.8708 52.778 23.3908 52.946C22.9108 53.102 22.3588 53.18 21.7348 53.18ZM19.2868 47.636H24.2188V47.582C24.2188 47.042 24.1168 46.562 23.9128 46.142C23.7208 45.722 23.4388 45.392 23.0668 45.152C22.6948 44.9 22.2508 44.774 21.7348 44.774C21.2188 44.774 20.7748 44.9 20.4028 45.152C20.0428 45.392 19.7668 45.722 19.5748 46.142C19.3828 46.562 19.2868 47.042 19.2868 47.582V47.636ZM28.495 53C28.375 53 28.273 52.964 28.189 52.892C28.117 52.808 28.081 52.706 28.081 52.586V44.054C28.081 43.934 28.117 43.838 28.189 43.766C28.273 43.682 28.375 43.64 28.495 43.64H29.341C29.461 43.64 29.557 43.682 29.629 43.766C29.713 43.838 29.755 43.934 29.755 44.054V44.846C30.067 44.438 30.457 44.108 30.925 43.856C31.405 43.592 32.017 43.46 32.761 43.46C33.541 43.46 34.201 43.634 34.741 43.982C35.293 44.318 35.707 44.792 35.983 45.404C36.259 46.004 36.397 46.706 36.397 47.51V52.586C36.397 52.706 36.361 52.808 36.289 52.892C36.217 52.964 36.121 53 36.001 53H35.101C34.981 53 34.879 52.964 34.795 52.892C34.723 52.808 34.687 52.706 34.687 52.586V47.6C34.687 46.76 34.483 46.106 34.075 45.638C33.667 45.158 33.067 44.918 32.275 44.918C31.531 44.918 30.931 45.158 30.475 45.638C30.031 46.106 29.809 46.76 29.809 47.6V52.586C29.809 52.706 29.767 52.808 29.683 52.892C29.611 52.964 29.515 53 29.395 53H28.495ZM42.528 53C41.856 53 41.31 52.874 40.89 52.622C40.47 52.358 40.164 51.992 39.972 51.524C39.78 51.044 39.684 50.48 39.684 49.832V45.08H38.28C38.16 45.08 38.058 45.044 37.974 44.972C37.902 44.888 37.866 44.786 37.866 44.666V44.054C37.866 43.934 37.902 43.838 37.974 43.766C38.058 43.682 38.16 43.64 38.28 43.64H39.684V40.634C39.684 40.514 39.72 40.418 39.792 40.346C39.876 40.262 39.978 40.22 40.098 40.22H40.944C41.064 40.22 41.16 40.262 41.232 40.346C41.316 40.418 41.358 40.514 41.358 40.634V43.64H43.59C43.71 43.64 43.806 43.682 43.878 43.766C43.962 43.838 44.004 43.934 44.004 44.054V44.666C44.004 44.786 43.962 44.888 43.878 44.972C43.806 45.044 43.71 45.08 43.59 45.08H41.358V49.706C41.358 50.27 41.454 50.714 41.646 51.038C41.838 51.362 42.18 51.524 42.672 51.524H43.77C43.89 51.524 43.986 51.566 44.058 51.65C44.142 51.722 44.184 51.818 44.184 51.938V52.586C44.184 52.706 44.142 52.808 44.058 52.892C43.986 52.964 43.89 53 43.77 53H42.528ZM50.9654 53C50.8454 53 50.7434 52.964 50.6594 52.892C50.5874 52.808 50.5514 52.706 50.5514 52.586V40.832C50.5514 40.7 50.5874 40.598 50.6594 40.526C50.7434 40.442 50.8454 40.4 50.9654 40.4H51.8654C52.0094 40.4 52.1174 40.436 52.1894 40.508C52.2614 40.58 52.3034 40.64 52.3154 40.688L56.1314 47.96L59.9654 40.688C59.9894 40.64 60.0314 40.58 60.0914 40.508C60.1634 40.436 60.2714 40.4 60.4154 40.4H61.2974C61.4294 40.4 61.5314 40.442 61.6034 40.526C61.6874 40.598 61.7294 40.7 61.7294 40.832V52.586C61.7294 52.706 61.6874 52.808 61.6034 52.892C61.5314 52.964 61.4294 53 61.2974 53H60.4154C60.2954 53 60.1934 52.964 60.1094 52.892C60.0374 52.808 60.0014 52.706 60.0014 52.586V43.73L56.9954 49.598C56.9474 49.718 56.8754 49.814 56.7794 49.886C56.6834 49.946 56.5634 49.976 56.4194 49.976H55.8614C55.7054 49.976 55.5794 49.946 55.4834 49.886C55.3994 49.814 55.3274 49.718 55.2674 49.598L52.2614 43.73V52.586C52.2614 52.706 52.2194 52.808 52.1354 52.892C52.0634 52.964 51.9674 53 51.8474 53H50.9654ZM67.2184 53.18C66.6184 53.18 66.0724 53.06 65.5804 52.82C65.0884 52.58 64.6924 52.256 64.3924 51.848C64.0924 51.44 63.9424 50.978 63.9424 50.462C63.9424 49.634 64.2784 48.974 64.9504 48.482C65.6224 47.99 66.4984 47.666 67.5784 47.51L70.2604 47.132V46.61C70.2604 46.034 70.0924 45.584 69.7564 45.26C69.4324 44.936 68.8984 44.774 68.1544 44.774C67.6144 44.774 67.1764 44.882 66.8404 45.098C66.5164 45.314 66.2884 45.59 66.1564 45.926C66.0844 46.106 65.9584 46.196 65.7784 46.196H64.9684C64.8364 46.196 64.7344 46.16 64.6624 46.088C64.6024 46.004 64.5724 45.908 64.5724 45.8C64.5724 45.62 64.6384 45.398 64.7704 45.134C64.9144 44.87 65.1304 44.612 65.4184 44.36C65.7064 44.108 66.0724 43.898 66.5164 43.73C66.9724 43.55 67.5244 43.46 68.1724 43.46C68.8924 43.46 69.4984 43.556 69.9904 43.748C70.4824 43.928 70.8664 44.174 71.1424 44.486C71.4304 44.798 71.6344 45.152 71.7544 45.548C71.8864 45.944 71.9524 46.346 71.9524 46.754V52.586C71.9524 52.706 71.9104 52.808 71.8264 52.892C71.7544 52.964 71.6584 53 71.5384 53H70.7104C70.5784 53 70.4764 52.964 70.4044 52.892C70.3324 52.808 70.2964 52.706 70.2964 52.586V51.812C70.1404 52.028 69.9304 52.244 69.6664 52.46C69.4024 52.664 69.0724 52.838 68.6764 52.982C68.2804 53.114 67.7944 53.18 67.2184 53.18ZM67.5964 51.83C68.0884 51.83 68.5384 51.728 68.9464 51.524C69.3544 51.308 69.6724 50.978 69.9004 50.534C70.1404 50.09 70.2604 49.532 70.2604 48.86V48.356L68.1724 48.662C67.3204 48.782 66.6784 48.986 66.2464 49.274C65.8144 49.55 65.5984 49.904 65.5984 50.336C65.5984 50.672 65.6944 50.954 65.8864 51.182C66.0904 51.398 66.3424 51.56 66.6424 51.668C66.9544 51.776 67.2724 51.83 67.5964 51.83ZM74.954 53C74.834 53 74.732 52.964 74.648 52.892C74.576 52.808 74.54 52.706 74.54 52.586V44.054C74.54 43.934 74.576 43.838 74.648 43.766C74.732 43.682 74.834 43.64 74.954 43.64H75.8C75.92 43.64 76.016 43.682 76.088 43.766C76.172 43.838 76.214 43.934 76.214 44.054V44.846C76.526 44.438 76.916 44.108 77.384 43.856C77.864 43.592 78.476 43.46 79.22 43.46C80 43.46 80.66 43.634 81.2 43.982C81.752 44.318 82.166 44.792 82.442 45.404C82.718 46.004 82.856 46.706 82.856 47.51V52.586C82.856 52.706 82.82 52.808 82.748 52.892C82.676 52.964 82.58 53 82.46 53H81.56C81.44 53 81.338 52.964 81.254 52.892C81.182 52.808 81.146 52.706 81.146 52.586V47.6C81.146 46.76 80.942 46.106 80.534 45.638C80.126 45.158 79.526 44.918 78.734 44.918C77.99 44.918 77.39 45.158 76.934 45.638C76.49 46.106 76.268 46.76 76.268 47.6V52.586C76.268 52.706 76.226 52.808 76.142 52.892C76.07 52.964 75.974 53 75.854 53H74.954ZM88.066 53.18C87.466 53.18 86.92 53.06 86.428 52.82C85.936 52.58 85.54 52.256 85.24 51.848C84.94 51.44 84.79 50.978 84.79 50.462C84.79 49.634 85.126 48.974 85.798 48.482C86.47 47.99 87.346 47.666 88.426 47.51L91.108 47.132V46.61C91.108 46.034 90.94 45.584 90.604 45.26C90.28 44.936 89.746 44.774 89.002 44.774C88.462 44.774 88.024 44.882 87.688 45.098C87.364 45.314 87.136 45.59 87.004 45.926C86.932 46.106 86.806 46.196 86.626 46.196H85.816C85.684 46.196 85.582 46.16 85.51 46.088C85.45 46.004 85.42 45.908 85.42 45.8C85.42 45.62 85.486 45.398 85.618 45.134C85.762 44.87 85.978 44.612 86.266 44.36C86.554 44.108 86.92 43.898 87.364 43.73C87.82 43.55 88.372 43.46 89.02 43.46C89.74 43.46 90.346 43.556 90.838 43.748C91.33 43.928 91.714 44.174 91.99 44.486C92.278 44.798 92.482 45.152 92.602 45.548C92.734 45.944 92.8 46.346 92.8 46.754V52.586C92.8 52.706 92.758 52.808 92.674 52.892C92.602 52.964 92.506 53 92.386 53H91.558C91.426 53 91.324 52.964 91.252 52.892C91.18 52.808 91.144 52.706 91.144 52.586V51.812C90.988 52.028 90.778 52.244 90.514 52.46C90.25 52.664 89.92 52.838 89.524 52.982C89.128 53.114 88.642 53.18 88.066 53.18ZM88.444 51.83C88.936 51.83 89.386 51.728 89.794 51.524C90.202 51.308 90.52 50.978 90.748 50.534C90.988 50.09 91.108 49.532 91.108 48.86V48.356L89.02 48.662C88.168 48.782 87.526 48.986 87.094 49.274C86.662 49.55 86.446 49.904 86.446 50.336C86.446 50.672 86.542 50.954 86.734 51.182C86.938 51.398 87.19 51.56 87.49 51.668C87.802 51.776 88.12 51.83 88.444 51.83ZM99.2217 56.96C98.4057 56.96 97.7337 56.852 97.2057 56.636C96.6897 56.42 96.2817 56.156 95.9817 55.844C95.6937 55.544 95.4837 55.238 95.3517 54.926C95.2317 54.626 95.1657 54.386 95.1537 54.206C95.1417 54.086 95.1777 53.984 95.2617 53.9C95.3577 53.816 95.4597 53.774 95.5677 53.774H96.4317C96.5397 53.774 96.6297 53.798 96.7017 53.846C96.7737 53.894 96.8337 53.996 96.8817 54.152C96.9537 54.332 97.0617 54.53 97.2057 54.746C97.3497 54.974 97.5717 55.166 97.8717 55.322C98.1717 55.49 98.5917 55.574 99.1317 55.574C99.6957 55.574 100.17 55.496 100.554 55.34C100.938 55.196 101.226 54.932 101.418 54.548C101.622 54.176 101.724 53.66 101.724 53V51.776C101.436 52.148 101.058 52.46 100.59 52.712C100.122 52.952 99.5337 53.072 98.8257 53.072C98.1537 53.072 97.5777 52.958 97.0977 52.73C96.6177 52.49 96.2217 52.172 95.9097 51.776C95.6097 51.368 95.3817 50.906 95.2257 50.39C95.0817 49.874 94.9977 49.334 94.9737 48.77C94.9617 48.434 94.9617 48.104 94.9737 47.78C94.9977 47.216 95.0817 46.676 95.2257 46.16C95.3817 45.644 95.6097 45.182 95.9097 44.774C96.2217 44.366 96.6177 44.048 97.0977 43.82C97.5777 43.58 98.1537 43.46 98.8257 43.46C99.5457 43.46 100.14 43.598 100.608 43.874C101.088 44.138 101.478 44.462 101.778 44.846V44.072C101.778 43.952 101.814 43.85 101.886 43.766C101.97 43.682 102.072 43.64 102.192 43.64H103.02C103.14 43.64 103.242 43.682 103.326 43.766C103.41 43.85 103.452 43.952 103.452 44.072V52.802C103.452 53.606 103.314 54.32 103.038 54.944C102.774 55.568 102.33 56.06 101.706 56.42C101.094 56.78 100.266 56.96 99.2217 56.96ZM99.1857 51.632C99.7857 51.632 100.266 51.494 100.626 51.218C100.998 50.942 101.268 50.594 101.436 50.174C101.616 49.754 101.712 49.328 101.724 48.896C101.736 48.728 101.742 48.524 101.742 48.284C101.742 48.032 101.736 47.822 101.724 47.654C101.712 47.222 101.616 46.796 101.436 46.376C101.268 45.956 100.998 45.608 100.626 45.332C100.266 45.056 99.7857 44.918 99.1857 44.918C98.5857 44.918 98.1057 45.056 97.7457 45.332C97.3857 45.596 97.1277 45.95 96.9717 46.394C96.8157 46.826 96.7257 47.294 96.7017 47.798C96.6897 48.11 96.6897 48.428 96.7017 48.752C96.7257 49.256 96.8157 49.73 96.9717 50.174C97.1277 50.606 97.3857 50.96 97.7457 51.236C98.1057 51.5 98.5857 51.632 99.1857 51.632ZM109.854 53.18C108.618 53.18 107.634 52.802 106.902 52.046C106.17 51.278 105.768 50.234 105.696 48.914C105.684 48.758 105.678 48.56 105.678 48.32C105.678 48.068 105.684 47.864 105.696 47.708C105.744 46.856 105.942 46.112 106.29 45.476C106.638 44.828 107.112 44.33 107.712 43.982C108.324 43.634 109.038 43.46 109.854 43.46C110.766 43.46 111.528 43.652 112.14 44.036C112.764 44.42 113.238 44.966 113.562 45.674C113.886 46.382 114.048 47.21 114.048 48.158V48.464C114.048 48.596 114.006 48.698 113.922 48.77C113.85 48.842 113.754 48.878 113.634 48.878H107.406C107.406 48.89 107.406 48.914 107.406 48.95C107.406 48.986 107.406 49.016 107.406 49.04C107.43 49.532 107.538 49.994 107.73 50.426C107.922 50.846 108.198 51.188 108.558 51.452C108.918 51.716 109.35 51.848 109.854 51.848C110.286 51.848 110.646 51.782 110.934 51.65C111.222 51.518 111.456 51.374 111.636 51.218C111.816 51.05 111.936 50.924 111.996 50.84C112.104 50.684 112.188 50.594 112.248 50.57C112.308 50.534 112.404 50.516 112.536 50.516H113.4C113.52 50.516 113.616 50.552 113.688 50.624C113.772 50.684 113.808 50.774 113.796 50.894C113.784 51.074 113.688 51.296 113.508 51.56C113.328 51.812 113.07 52.064 112.734 52.316C112.398 52.568 111.99 52.778 111.51 52.946C111.03 53.102 110.478 53.18 109.854 53.18ZM107.406 47.636H112.338V47.582C112.338 47.042 112.236 46.562 112.032 46.142C111.84 45.722 111.558 45.392 111.186 45.152C110.814 44.9 110.37 44.774 109.854 44.774C109.338 44.774 108.894 44.9 108.522 45.152C108.162 45.392 107.886 45.722 107.694 46.142C107.502 46.562 107.406 47.042 107.406 47.582V47.636ZM116.614 53C116.494 53 116.392 52.964 116.308 52.892C116.236 52.808 116.2 52.706 116.2 52.586V44.072C116.2 43.952 116.236 43.85 116.308 43.766C116.392 43.682 116.494 43.64 116.614 43.64H117.442C117.562 43.64 117.664 43.682 117.748 43.766C117.832 43.85 117.874 43.952 117.874 44.072V44.864C118.114 44.456 118.444 44.15 118.864 43.946C119.284 43.742 119.788 43.64 120.376 43.64H121.096C121.216 43.64 121.312 43.682 121.384 43.766C121.456 43.838 121.492 43.934 121.492 44.054V44.792C121.492 44.912 121.456 45.008 121.384 45.08C121.312 45.152 121.216 45.188 121.096 45.188H120.016C119.368 45.188 118.858 45.38 118.486 45.764C118.114 46.136 117.928 46.646 117.928 47.294V52.586C117.928 52.706 117.886 52.808 117.802 52.892C117.718 52.964 117.616 53 117.496 53H116.614Z" fill="#2C3B58"/>
<path d="M26.4037 4.17803C26.5316 3.4218 26.4048 2.64336 26.044 1.97116C25.6832 1.29895 25.1101 0.773135 24.4192 0.480474C23.7283 0.187813 22.9609 0.145789 22.2437 0.361338C21.5264 0.576886 20.9021 1.03713 20.4738 1.66612L14.2274 10.83L7.97951 1.66612C7.55163 1.03648 6.92739 0.575612 6.20996 0.359665C5.49252 0.143717 4.72482 0.185619 4.03371 0.478444C3.3426 0.771269 2.76944 1.29749 2.40895 1.97016C2.04845 2.64283 1.9222 3.42169 2.05104 4.17803C2.01838 4.36795 2.00131 4.56035 2 4.7532V29.5142C2 30.4096 2.34634 31.2684 2.96282 31.9015C3.5793 32.5347 4.41543 32.8904 5.28727 32.8904C6.15911 32.8904 6.99524 32.5347 7.61172 31.9015C8.2282 31.2684 8.57454 30.4096 8.57454 29.5142V14.3125L11.5351 18.6563C11.5439 18.6698 11.5541 18.6817 11.5643 18.6952C11.6226 18.7776 11.6839 18.8585 11.751 18.9364C11.7714 18.9588 11.7903 18.9843 11.8093 19.0083C11.8895 19.0971 11.9742 19.1816 12.0631 19.2614L12.1462 19.3288C12.2089 19.3827 12.2731 19.4367 12.3416 19.4861L12.3664 19.5026L12.4539 19.561C12.5298 19.6104 12.6071 19.6568 12.6858 19.6988C12.7091 19.7123 12.731 19.7272 12.7558 19.7392C12.8584 19.7912 12.9636 19.8377 13.0708 19.8785L13.1219 19.8995C13.2308 19.9398 13.3418 19.9738 13.4544 20.0014H13.4646C13.581 20.0295 13.6988 20.051 13.8175 20.0658H13.8744C13.9906 20.0795 14.1075 20.0865 14.2244 20.0867V20.0867C14.3419 20.0865 14.4592 20.0795 14.5759 20.0658H14.6328C14.7515 20.0508 14.8693 20.0293 14.9857 20.0014H14.9974C15.1093 19.9752 15.2194 19.9417 15.327 19.901L15.3795 19.88C15.4864 19.8395 15.5911 19.793 15.6931 19.7407C15.7193 19.7287 15.7412 19.7138 15.7645 19.7003C15.8433 19.6583 15.9191 19.6119 15.9964 19.5625L16.0839 19.5041L16.1087 19.4876C16.1773 19.4382 16.2414 19.3842 16.3056 19.3303C16.3333 19.3078 16.361 19.2869 16.3858 19.2629C16.4755 19.1835 16.5607 19.099 16.641 19.0098C16.6598 18.9848 16.6797 18.9608 16.7008 18.9379C16.7665 18.86 16.8292 18.7791 16.8861 18.6967C16.8967 18.6845 16.9064 18.6715 16.9152 18.6578L19.8758 14.314V29.5142C19.8758 29.9576 19.9608 30.3966 20.126 30.8062C20.2912 31.2158 20.5334 31.588 20.8386 31.9015C21.1439 32.215 21.5063 32.4637 21.9051 32.6334C22.3039 32.8031 22.7314 32.8904 23.1631 32.8904C23.5948 32.8904 24.0222 32.8031 24.4211 32.6334C24.8199 32.4637 25.1823 32.215 25.4875 31.9015C25.7928 31.588 26.0349 31.2158 26.2001 30.8062C26.3653 30.3966 26.4503 29.9576 26.4503 29.5142V4.74721C26.4509 4.55645 26.4352 4.36601 26.4037 4.17803V4.17803Z" fill="#2C3B58"/>
<path d="M51.2337 7.94319C50.4733 7.94289 49.73 7.711 49.0979 7.27684C48.4659 6.84268 47.9733 6.22575 47.6827 5.50408C47.392 4.78242 47.3163 3.98843 47.465 3.22255C47.6137 2.45666 47.9803 1.75328 48.5183 1.20136C49.0563 0.649447 49.7416 0.27379 50.4875 0.121902C51.2333 -0.0299856 52.0063 0.0487218 52.7087 0.348066C53.411 0.647409 54.0111 1.15395 54.4331 1.80361C54.8551 2.45327 55.0801 3.21687 55.0795 3.99785C55.0793 4.51628 54.9797 5.02959 54.7863 5.50847C54.5929 5.98734 54.3095 6.4224 53.9524 6.78877C53.5953 7.15515 53.1713 7.44568 52.7049 7.64375C52.2384 7.84183 51.7385 7.94358 51.2337 7.94319V7.94319Z" fill="#2D9CDB"/>
<path d="M43.2304 10.603L36.9826 1.44058C36.5543 0.811588 35.93 0.351347 35.2127 0.135798C34.4954 -0.0797501 33.728 -0.0377269 33.0371 0.254934C32.3462 0.547596 31.7731 1.07341 31.4124 1.74562C31.0516 2.41782 30.9247 3.19626 31.0527 3.95249L37.5776 14.0855L39.9023 17.4946L39.8834 29.422C39.8797 29.8654 39.9612 30.3051 40.123 30.7162C40.2848 31.1272 40.5239 31.5015 40.8266 31.8176C41.1293 32.1338 41.4896 32.3856 41.8871 32.5587C42.2845 32.7318 42.7113 32.8229 43.1429 32.8266C43.5746 32.8303 44.0028 32.7467 44.403 32.5805C44.8033 32.4143 45.1677 32.1687 45.4755 31.8579C45.7833 31.547 46.0285 31.1769 46.1971 30.7687C46.3657 30.3606 46.4543 29.9223 46.4579 29.4789L46.4769 15.5354" fill="#2C3B58"/>
<path d="M84.8565 20.5036C84.1148 20.0346 83.2222 19.8869 82.3746 20.0931C81.527 20.2992 80.7936 20.8422 80.3354 21.603C79.3341 23.2714 77.8302 24.5587 76.0519 25.2694C74.2735 25.9802 72.318 26.0756 70.4821 25.5412C68.6462 25.0068 67.0302 23.8717 65.8794 22.3083C64.7287 20.7449 64.1061 18.8386 64.1061 16.8788C64.1061 14.919 64.7287 13.0126 65.8794 11.4493C67.0302 9.88588 68.6462 8.75082 70.4821 8.2164C72.318 7.68198 74.2735 7.7774 76.0519 8.48815C77.8302 9.19891 79.3341 10.4862 80.3354 12.1546C80.5597 12.5372 80.8556 12.8703 81.2062 13.1347C81.5567 13.399 81.9548 13.5893 82.3774 13.6945C82.8001 13.7997 83.2388 13.8177 83.6683 13.7475C84.0977 13.6774 84.5094 13.5204 84.8793 13.2856C85.2493 13.0509 85.5703 12.7431 85.8236 12.3801C86.0769 12.0171 86.2576 11.6061 86.3552 11.1709C86.4528 10.7356 86.4653 10.2848 86.392 9.84458C86.3188 9.40434 86.1612 8.9834 85.9284 8.60614C84.1753 5.68685 81.5427 3.43469 78.4302 2.19149C75.3177 0.948294 71.8953 0.781952 68.6824 1.71771C65.4695 2.65347 62.6416 4.64024 60.6279 7.37644C58.6142 10.1127 57.5247 13.4489 57.5247 16.8788C57.5247 20.3087 58.6142 23.6449 60.6279 26.3811C62.6416 29.1173 65.4695 31.1041 68.6824 32.0399C71.8953 32.9756 75.3177 32.8093 78.4302 31.5661C81.5427 30.3229 84.1753 28.0707 85.9284 25.1514C86.1553 24.774 86.3076 24.3544 86.3766 23.9165C86.4455 23.4786 86.4298 23.031 86.3302 22.5994C86.2307 22.1677 86.0493 21.7605 85.7964 21.4009C85.5435 21.0413 85.2241 20.7364 84.8565 20.5036V20.5036Z" fill="#2C3B58"/>
<path d="M106.658 32.5666C103.623 32.5666 100.657 31.6425 98.1336 29.911C95.6106 28.1796 93.6441 25.7186 92.4828 22.8393C91.3216 19.96 91.0178 16.7917 91.6098 13.7351C92.2017 10.6784 93.663 7.87072 95.8087 5.66701C97.9544 3.46329 100.688 1.96254 103.664 1.35454C106.64 0.746536 109.725 1.05858 112.529 2.25123C115.332 3.44387 117.729 5.46354 119.414 8.05483C121.1 10.6461 122 13.6927 122 16.8092C121.995 20.9869 120.378 24.9921 117.501 27.9461C114.625 30.9002 110.725 32.5618 106.658 32.5666V32.5666ZM106.658 7.80559C104.924 7.80559 103.229 8.33364 101.787 9.32297C100.345 10.3123 99.2218 11.7185 98.5583 13.3637C97.8948 15.0089 97.7211 16.8192 98.0594 18.5657C98.3977 20.3122 99.2326 21.9165 100.459 23.1757C101.685 24.4349 103.247 25.2924 104.947 25.6398C106.648 25.9872 108.41 25.8089 110.012 25.1274C111.614 24.446 112.983 23.292 113.947 21.8113C114.91 20.3307 115.424 18.5899 115.424 16.8092C115.421 14.4221 114.497 12.1336 112.853 10.4457C111.21 8.75784 108.982 7.80837 106.658 7.80559V7.80559Z" fill="#2C3B58"/>
</svg>
