<svg width="126" height="59" viewBox="0 0 126 59" fill="none" xmlns="http://www.w3.org/2000/svg">
<path d="M6.102 55.18C4.998 55.18 4.08 54.976 3.348 54.568C2.628 54.16 2.082 53.59 1.71 52.858C1.338 52.126 1.134 51.274 1.098 50.302C1.086 49.81 1.08 49.282 1.08 48.718C1.08 48.154 1.086 47.614 1.098 47.098C1.134 46.126 1.338 45.274 1.71 44.542C2.082 43.81 2.628 43.24 3.348 42.832C4.08 42.424 4.998 42.22 6.102 42.22C6.93 42.22 7.656 42.334 8.28 42.562C8.904 42.79 9.42 43.096 9.828 43.48C10.248 43.864 10.566 44.296 10.782 44.776C10.998 45.244 11.118 45.73 11.142 46.234C11.154 46.342 11.118 46.432 11.034 46.504C10.962 46.576 10.872 46.612 10.764 46.612H9.774C9.666 46.612 9.57 46.582 9.486 46.522C9.414 46.462 9.36 46.354 9.324 46.198C9.12 45.262 8.736 44.62 8.172 44.272C7.62 43.924 6.924 43.75 6.084 43.75C5.124 43.75 4.362 44.026 3.798 44.578C3.234 45.118 2.928 45.988 2.88 47.188C2.844 48.172 2.844 49.18 2.88 50.212C2.928 51.412 3.234 52.288 3.798 52.84C4.362 53.38 5.124 53.65 6.084 53.65C6.924 53.65 7.62 53.476 8.172 53.128C8.736 52.78 9.12 52.138 9.324 51.202C9.36 51.046 9.414 50.938 9.486 50.878C9.57 50.818 9.666 50.788 9.774 50.788H10.764C10.872 50.788 10.962 50.824 11.034 50.896C11.118 50.968 11.154 51.058 11.142 51.166C11.118 51.67 10.998 52.162 10.782 52.642C10.566 53.11 10.248 53.536 9.828 53.92C9.42 54.304 8.904 54.61 8.28 54.838C7.656 55.066 6.93 55.18 6.102 55.18ZM13.7523 55C13.6323 55 13.5303 54.964 13.4463 54.892C13.3743 54.808 13.3383 54.706 13.3383 54.586V42.634C13.3383 42.514 13.3743 42.418 13.4463 42.346C13.5303 42.262 13.6323 42.22 13.7523 42.22H14.5983C14.7303 42.22 14.8323 42.262 14.9043 42.346C14.9763 42.418 15.0123 42.514 15.0123 42.634V54.586C15.0123 54.706 14.9763 54.808 14.9043 54.892C14.8323 54.964 14.7303 55 14.5983 55H13.7523ZM18.287 55C18.167 55 18.065 54.964 17.981 54.892C17.909 54.808 17.873 54.706 17.873 54.586V46.054C17.873 45.934 17.909 45.838 17.981 45.766C18.065 45.682 18.167 45.64 18.287 45.64H19.151C19.271 45.64 19.367 45.682 19.439 45.766C19.511 45.838 19.547 45.934 19.547 46.054V54.586C19.547 54.706 19.511 54.808 19.439 54.892C19.367 54.964 19.271 55 19.151 55H18.287ZM18.143 43.894C18.023 43.894 17.921 43.858 17.837 43.786C17.765 43.702 17.729 43.6 17.729 43.48V42.508C17.729 42.388 17.765 42.292 17.837 42.22C17.921 42.136 18.023 42.094 18.143 42.094H19.277C19.397 42.094 19.493 42.136 19.565 42.22C19.649 42.292 19.691 42.388 19.691 42.508V43.48C19.691 43.6 19.649 43.702 19.565 43.786C19.493 43.858 19.397 43.894 19.277 43.894H18.143ZM25.9935 55.18C24.7575 55.18 23.7735 54.802 23.0415 54.046C22.3095 53.278 21.9075 52.234 21.8355 50.914C21.8235 50.758 21.8175 50.56 21.8175 50.32C21.8175 50.068 21.8235 49.864 21.8355 49.708C21.8835 48.856 22.0815 48.112 22.4295 47.476C22.7775 46.828 23.2515 46.33 23.8515 45.982C24.4635 45.634 25.1775 45.46 25.9935 45.46C26.9055 45.46 27.6675 45.652 28.2795 46.036C28.9035 46.42 29.3775 46.966 29.7015 47.674C30.0255 48.382 30.1875 49.21 30.1875 50.158V50.464C30.1875 50.596 30.1455 50.698 30.0615 50.77C29.9895 50.842 29.8935 50.878 29.7735 50.878H23.5455C23.5455 50.89 23.5455 50.914 23.5455 50.95C23.5455 50.986 23.5455 51.016 23.5455 51.04C23.5695 51.532 23.6775 51.994 23.8695 52.426C24.0615 52.846 24.3375 53.188 24.6975 53.452C25.0575 53.716 25.4895 53.848 25.9935 53.848C26.4255 53.848 26.7855 53.782 27.0735 53.65C27.3615 53.518 27.5955 53.374 27.7755 53.218C27.9555 53.05 28.0755 52.924 28.1355 52.84C28.2435 52.684 28.3275 52.594 28.3875 52.57C28.4475 52.534 28.5435 52.516 28.6755 52.516H29.5395C29.6595 52.516 29.7555 52.552 29.8275 52.624C29.9115 52.684 29.9475 52.774 29.9355 52.894C29.9235 53.074 29.8275 53.296 29.6475 53.56C29.4675 53.812 29.2095 54.064 28.8735 54.316C28.5375 54.568 28.1295 54.778 27.6495 54.946C27.1695 55.102 26.6175 55.18 25.9935 55.18ZM23.5455 49.636H28.4775V49.582C28.4775 49.042 28.3755 48.562 28.1715 48.142C27.9795 47.722 27.6975 47.392 27.3255 47.152C26.9535 46.9 26.5095 46.774 25.9935 46.774C25.4775 46.774 25.0335 46.9 24.6615 47.152C24.3015 47.392 24.0255 47.722 23.8335 48.142C23.6415 48.562 23.5455 49.042 23.5455 49.582V49.636ZM32.7538 55C32.6338 55 32.5318 54.964 32.4478 54.892C32.3758 54.808 32.3398 54.706 32.3398 54.586V46.054C32.3398 45.934 32.3758 45.838 32.4478 45.766C32.5318 45.682 32.6338 45.64 32.7538 45.64H33.5998C33.7198 45.64 33.8158 45.682 33.8878 45.766C33.9718 45.838 34.0138 45.934 34.0138 46.054V46.846C34.3258 46.438 34.7158 46.108 35.1838 45.856C35.6638 45.592 36.2758 45.46 37.0198 45.46C37.7998 45.46 38.4598 45.634 38.9998 45.982C39.5518 46.318 39.9658 46.792 40.2418 47.404C40.5178 48.004 40.6558 48.706 40.6558 49.51V54.586C40.6558 54.706 40.6198 54.808 40.5478 54.892C40.4758 54.964 40.3798 55 40.2598 55H39.3598C39.2398 55 39.1378 54.964 39.0538 54.892C38.9818 54.808 38.9458 54.706 38.9458 54.586V49.6C38.9458 48.76 38.7418 48.106 38.3338 47.638C37.9258 47.158 37.3258 46.918 36.5338 46.918C35.7898 46.918 35.1898 47.158 34.7338 47.638C34.2898 48.106 34.0678 48.76 34.0678 49.6V54.586C34.0678 54.706 34.0258 54.808 33.9418 54.892C33.8698 54.964 33.7738 55 33.6538 55H32.7538ZM46.7868 55C46.1148 55 45.5688 54.874 45.1488 54.622C44.7288 54.358 44.4228 53.992 44.2308 53.524C44.0388 53.044 43.9428 52.48 43.9428 51.832V47.08H42.5388C42.4188 47.08 42.3168 47.044 42.2328 46.972C42.1608 46.888 42.1248 46.786 42.1248 46.666V46.054C42.1248 45.934 42.1608 45.838 42.2328 45.766C42.3168 45.682 42.4188 45.64 42.5388 45.64H43.9428V42.634C43.9428 42.514 43.9788 42.418 44.0508 42.346C44.1348 42.262 44.2368 42.22 44.3568 42.22H45.2028C45.3228 42.22 45.4188 42.262 45.4908 42.346C45.5748 42.418 45.6168 42.514 45.6168 42.634V45.64H47.8488C47.9688 45.64 48.0648 45.682 48.1368 45.766C48.2208 45.838 48.2628 45.934 48.2628 46.054V46.666C48.2628 46.786 48.2208 46.888 48.1368 46.972C48.0648 47.044 47.9688 47.08 47.8488 47.08H45.6168V51.706C45.6168 52.27 45.7128 52.714 45.9048 53.038C46.0968 53.362 46.4388 53.524 46.9308 53.524H48.0288C48.1488 53.524 48.2448 53.566 48.3168 53.65C48.4008 53.722 48.4428 53.818 48.4428 53.938V54.586C48.4428 54.706 48.4008 54.808 48.3168 54.892C48.2448 54.964 48.1488 55 48.0288 55H46.7868ZM55.2241 55C55.1041 55 55.0021 54.964 54.9181 54.892C54.8461 54.808 54.8101 54.706 54.8101 54.586V42.832C54.8101 42.7 54.8461 42.598 54.9181 42.526C55.0021 42.442 55.1041 42.4 55.2241 42.4H56.1241C56.2681 42.4 56.3761 42.436 56.4481 42.508C56.5201 42.58 56.5621 42.64 56.5741 42.688L60.3901 49.96L64.2241 42.688C64.2481 42.64 64.2901 42.58 64.3501 42.508C64.4221 42.436 64.5301 42.4 64.6741 42.4H65.5561C65.6881 42.4 65.7901 42.442 65.8621 42.526C65.9461 42.598 65.9881 42.7 65.9881 42.832V54.586C65.9881 54.706 65.9461 54.808 65.8621 54.892C65.7901 54.964 65.6881 55 65.5561 55H64.6741C64.5541 55 64.4521 54.964 64.3681 54.892C64.2961 54.808 64.2601 54.706 64.2601 54.586V45.73L61.2541 51.598C61.2061 51.718 61.1341 51.814 61.0381 51.886C60.9421 51.946 60.8221 51.976 60.6781 51.976H60.1201C59.9641 51.976 59.8381 51.946 59.7421 51.886C59.6581 51.814 59.5861 51.718 59.5261 51.598L56.5201 45.73V54.586C56.5201 54.706 56.4781 54.808 56.3941 54.892C56.3221 54.964 56.2261 55 56.1061 55H55.2241ZM71.4772 55.18C70.8772 55.18 70.3312 55.06 69.8392 54.82C69.3472 54.58 68.9512 54.256 68.6512 53.848C68.3512 53.44 68.2012 52.978 68.2012 52.462C68.2012 51.634 68.5372 50.974 69.2092 50.482C69.8812 49.99 70.7572 49.666 71.8372 49.51L74.5192 49.132V48.61C74.5192 48.034 74.3512 47.584 74.0152 47.26C73.6912 46.936 73.1572 46.774 72.4132 46.774C71.8732 46.774 71.4352 46.882 71.0992 47.098C70.7752 47.314 70.5472 47.59 70.4152 47.926C70.3432 48.106 70.2172 48.196 70.0372 48.196H69.2272C69.0952 48.196 68.9932 48.16 68.9212 48.088C68.8612 48.004 68.8312 47.908 68.8312 47.8C68.8312 47.62 68.8972 47.398 69.0292 47.134C69.1732 46.87 69.3892 46.612 69.6772 46.36C69.9652 46.108 70.3312 45.898 70.7752 45.73C71.2312 45.55 71.7832 45.46 72.4312 45.46C73.1512 45.46 73.7572 45.556 74.2492 45.748C74.7412 45.928 75.1252 46.174 75.4012 46.486C75.6892 46.798 75.8932 47.152 76.0132 47.548C76.1452 47.944 76.2112 48.346 76.2112 48.754V54.586C76.2112 54.706 76.1692 54.808 76.0852 54.892C76.0132 54.964 75.9172 55 75.7972 55H74.9692C74.8372 55 74.7352 54.964 74.6632 54.892C74.5912 54.808 74.5552 54.706 74.5552 54.586V53.812C74.3992 54.028 74.1892 54.244 73.9252 54.46C73.6612 54.664 73.3312 54.838 72.9352 54.982C72.5392 55.114 72.0532 55.18 71.4772 55.18ZM71.8552 53.83C72.3472 53.83 72.7972 53.728 73.2052 53.524C73.6132 53.308 73.9312 52.978 74.1592 52.534C74.3992 52.09 74.5192 51.532 74.5192 50.86V50.356L72.4312 50.662C71.5792 50.782 70.9372 50.986 70.5052 51.274C70.0732 51.55 69.8572 51.904 69.8572 52.336C69.8572 52.672 69.9532 52.954 70.1452 53.182C70.3492 53.398 70.6012 53.56 70.9012 53.668C71.2132 53.776 71.5312 53.83 71.8552 53.83ZM79.2128 55C79.0928 55 78.9908 54.964 78.9068 54.892C78.8348 54.808 78.7988 54.706 78.7988 54.586V46.054C78.7988 45.934 78.8348 45.838 78.9068 45.766C78.9908 45.682 79.0928 45.64 79.2128 45.64H80.0588C80.1788 45.64 80.2748 45.682 80.3468 45.766C80.4308 45.838 80.4728 45.934 80.4728 46.054V46.846C80.7848 46.438 81.1748 46.108 81.6428 45.856C82.1228 45.592 82.7348 45.46 83.4788 45.46C84.2588 45.46 84.9188 45.634 85.4588 45.982C86.0108 46.318 86.4248 46.792 86.7008 47.404C86.9768 48.004 87.1148 48.706 87.1148 49.51V54.586C87.1148 54.706 87.0788 54.808 87.0068 54.892C86.9348 54.964 86.8388 55 86.7188 55H85.8188C85.6988 55 85.5968 54.964 85.5128 54.892C85.4408 54.808 85.4048 54.706 85.4048 54.586V49.6C85.4048 48.76 85.2008 48.106 84.7928 47.638C84.3848 47.158 83.7848 46.918 82.9928 46.918C82.2488 46.918 81.6488 47.158 81.1928 47.638C80.7488 48.106 80.5268 48.76 80.5268 49.6V54.586C80.5268 54.706 80.4848 54.808 80.4008 54.892C80.3288 54.964 80.2328 55 80.1128 55H79.2128ZM92.3248 55.18C91.7248 55.18 91.1788 55.06 90.6868 54.82C90.1948 54.58 89.7988 54.256 89.4988 53.848C89.1988 53.44 89.0488 52.978 89.0488 52.462C89.0488 51.634 89.3848 50.974 90.0568 50.482C90.7288 49.99 91.6048 49.666 92.6848 49.51L95.3668 49.132V48.61C95.3668 48.034 95.1988 47.584 94.8628 47.26C94.5388 46.936 94.0048 46.774 93.2608 46.774C92.7208 46.774 92.2828 46.882 91.9468 47.098C91.6228 47.314 91.3948 47.59 91.2628 47.926C91.1908 48.106 91.0648 48.196 90.8848 48.196H90.0748C89.9428 48.196 89.8408 48.16 89.7688 48.088C89.7088 48.004 89.6788 47.908 89.6788 47.8C89.6788 47.62 89.7448 47.398 89.8768 47.134C90.0208 46.87 90.2368 46.612 90.5248 46.36C90.8128 46.108 91.1788 45.898 91.6228 45.73C92.0788 45.55 92.6308 45.46 93.2788 45.46C93.9988 45.46 94.6048 45.556 95.0968 45.748C95.5888 45.928 95.9728 46.174 96.2488 46.486C96.5368 46.798 96.7408 47.152 96.8608 47.548C96.9928 47.944 97.0588 48.346 97.0588 48.754V54.586C97.0588 54.706 97.0168 54.808 96.9328 54.892C96.8608 54.964 96.7648 55 96.6448 55H95.8168C95.6848 55 95.5828 54.964 95.5108 54.892C95.4388 54.808 95.4028 54.706 95.4028 54.586V53.812C95.2468 54.028 95.0368 54.244 94.7728 54.46C94.5088 54.664 94.1788 54.838 93.7828 54.982C93.3868 55.114 92.9008 55.18 92.3248 55.18ZM92.7028 53.83C93.1948 53.83 93.6448 53.728 94.0528 53.524C94.4608 53.308 94.7788 52.978 95.0068 52.534C95.2468 52.09 95.3668 51.532 95.3668 50.86V50.356L93.2788 50.662C92.4268 50.782 91.7848 50.986 91.3528 51.274C90.9208 51.55 90.7048 51.904 90.7048 52.336C90.7048 52.672 90.8008 52.954 90.9928 53.182C91.1968 53.398 91.4488 53.56 91.7488 53.668C92.0608 53.776 92.3788 53.83 92.7028 53.83ZM103.48 58.96C102.664 58.96 101.992 58.852 101.464 58.636C100.948 58.42 100.54 58.156 100.24 57.844C99.9525 57.544 99.7425 57.238 99.6105 56.926C99.4905 56.626 99.4245 56.386 99.4125 56.206C99.4005 56.086 99.4365 55.984 99.5205 55.9C99.6165 55.816 99.7185 55.774 99.8265 55.774H100.69C100.798 55.774 100.888 55.798 100.96 55.846C101.032 55.894 101.092 55.996 101.14 56.152C101.212 56.332 101.32 56.53 101.464 56.746C101.608 56.974 101.83 57.166 102.13 57.322C102.43 57.49 102.85 57.574 103.39 57.574C103.954 57.574 104.428 57.496 104.812 57.34C105.196 57.196 105.484 56.932 105.676 56.548C105.88 56.176 105.982 55.66 105.982 55V53.776C105.694 54.148 105.316 54.46 104.848 54.712C104.38 54.952 103.792 55.072 103.084 55.072C102.412 55.072 101.836 54.958 101.356 54.73C100.876 54.49 100.48 54.172 100.168 53.776C99.8685 53.368 99.6405 52.906 99.4845 52.39C99.3405 51.874 99.2565 51.334 99.2325 50.77C99.2205 50.434 99.2205 50.104 99.2325 49.78C99.2565 49.216 99.3405 48.676 99.4845 48.16C99.6405 47.644 99.8685 47.182 100.168 46.774C100.48 46.366 100.876 46.048 101.356 45.82C101.836 45.58 102.412 45.46 103.084 45.46C103.804 45.46 104.398 45.598 104.866 45.874C105.346 46.138 105.736 46.462 106.036 46.846V46.072C106.036 45.952 106.072 45.85 106.144 45.766C106.228 45.682 106.33 45.64 106.45 45.64H107.278C107.398 45.64 107.5 45.682 107.584 45.766C107.668 45.85 107.71 45.952 107.71 46.072V54.802C107.71 55.606 107.572 56.32 107.296 56.944C107.032 57.568 106.588 58.06 105.964 58.42C105.352 58.78 104.524 58.96 103.48 58.96ZM103.444 53.632C104.044 53.632 104.524 53.494 104.884 53.218C105.256 52.942 105.526 52.594 105.694 52.174C105.874 51.754 105.97 51.328 105.982 50.896C105.994 50.728 106 50.524 106 50.284C106 50.032 105.994 49.822 105.982 49.654C105.97 49.222 105.874 48.796 105.694 48.376C105.526 47.956 105.256 47.608 104.884 47.332C104.524 47.056 104.044 46.918 103.444 46.918C102.844 46.918 102.364 47.056 102.004 47.332C101.644 47.596 101.386 47.95 101.23 48.394C101.074 48.826 100.984 49.294 100.96 49.798C100.948 50.11 100.948 50.428 100.96 50.752C100.984 51.256 101.074 51.73 101.23 52.174C101.386 52.606 101.644 52.96 102.004 53.236C102.364 53.5 102.844 53.632 103.444 53.632ZM114.113 55.18C112.877 55.18 111.893 54.802 111.161 54.046C110.429 53.278 110.027 52.234 109.955 50.914C109.943 50.758 109.937 50.56 109.937 50.32C109.937 50.068 109.943 49.864 109.955 49.708C110.003 48.856 110.201 48.112 110.549 47.476C110.897 46.828 111.371 46.33 111.971 45.982C112.583 45.634 113.297 45.46 114.113 45.46C115.025 45.46 115.787 45.652 116.399 46.036C117.023 46.42 117.497 46.966 117.821 47.674C118.145 48.382 118.307 49.21 118.307 50.158V50.464C118.307 50.596 118.265 50.698 118.181 50.77C118.109 50.842 118.013 50.878 117.893 50.878H111.665C111.665 50.89 111.665 50.914 111.665 50.95C111.665 50.986 111.665 51.016 111.665 51.04C111.689 51.532 111.797 51.994 111.989 52.426C112.181 52.846 112.457 53.188 112.817 53.452C113.177 53.716 113.609 53.848 114.113 53.848C114.545 53.848 114.905 53.782 115.193 53.65C115.481 53.518 115.715 53.374 115.895 53.218C116.075 53.05 116.195 52.924 116.255 52.84C116.363 52.684 116.447 52.594 116.507 52.57C116.567 52.534 116.663 52.516 116.795 52.516H117.659C117.779 52.516 117.875 52.552 117.947 52.624C118.031 52.684 118.067 52.774 118.055 52.894C118.043 53.074 117.947 53.296 117.767 53.56C117.587 53.812 117.329 54.064 116.993 54.316C116.657 54.568 116.249 54.778 115.769 54.946C115.289 55.102 114.737 55.18 114.113 55.18ZM111.665 49.636H116.597V49.582C116.597 49.042 116.495 48.562 116.291 48.142C116.099 47.722 115.817 47.392 115.445 47.152C115.073 46.9 114.629 46.774 114.113 46.774C113.597 46.774 113.153 46.9 112.781 47.152C112.421 47.392 112.145 47.722 111.953 48.142C111.761 48.562 111.665 49.042 111.665 49.582V49.636ZM120.873 55C120.753 55 120.651 54.964 120.567 54.892C120.495 54.808 120.459 54.706 120.459 54.586V46.072C120.459 45.952 120.495 45.85 120.567 45.766C120.651 45.682 120.753 45.64 120.873 45.64H121.701C121.821 45.64 121.923 45.682 122.007 45.766C122.091 45.85 122.133 45.952 122.133 46.072V46.864C122.373 46.456 122.703 46.15 123.123 45.946C123.543 45.742 124.047 45.64 124.635 45.64H125.355C125.475 45.64 125.571 45.682 125.643 45.766C125.715 45.838 125.751 45.934 125.751 46.054V46.792C125.751 46.912 125.715 47.008 125.643 47.08C125.571 47.152 125.475 47.188 125.355 47.188H124.275C123.627 47.188 123.117 47.38 122.745 47.764C122.373 48.136 122.187 48.646 122.187 49.294V54.586C122.187 54.706 122.145 54.808 122.061 54.892C121.977 54.964 121.875 55 121.755 55H120.873Z" fill="#2C3B58"/>
<path d="M26.9574 4.17803C27.0882 3.4218 26.9585 2.64336 26.5895 1.97116C26.2206 1.29895 25.6345 0.773135 24.9279 0.480474C24.2213 0.187813 23.4365 0.145789 22.703 0.361338C21.9694 0.576886 21.3309 1.03713 20.8929 1.66612L14.5048 10.83L8.11518 1.66612C7.67759 1.03648 7.03919 0.575612 6.30548 0.359665C5.57176 0.143717 4.78664 0.185619 4.07985 0.478444C3.37306 0.77127 2.7869 1.29749 2.41823 1.97016C2.04955 2.64283 1.92043 3.42169 2.0522 4.17803C2.0188 4.36795 2.00134 4.56035 2 4.7532V29.5142C2 30.4096 2.35419 31.2684 2.98466 31.9015C3.61513 32.5347 4.47023 32.8904 5.36185 32.8904C6.25347 32.8904 7.10857 32.5347 7.73904 31.9015C8.36951 31.2684 8.72371 30.4096 8.72371 29.5142V14.3125L11.7515 18.6563C11.7604 18.6698 11.7709 18.6817 11.7813 18.6952C11.841 18.7776 11.9036 18.8585 11.9722 18.9364C11.9931 18.9588 12.0125 18.9843 12.0319 19.0083C12.1139 19.0971 12.2005 19.1816 12.2914 19.2614L12.3764 19.3288C12.4405 19.3827 12.5062 19.4367 12.5763 19.4861L12.6016 19.5026L12.6911 19.561C12.7687 19.6104 12.8477 19.6568 12.9283 19.6988C12.9521 19.7123 12.9745 19.7272 12.9999 19.7392C13.1048 19.7912 13.2123 19.8377 13.322 19.8785L13.3742 19.8995C13.4856 19.9398 13.5991 19.9738 13.7143 20.0014H13.7247C13.8438 20.0295 13.9643 20.051 14.0857 20.0658H14.1438C14.2627 20.0795 14.3822 20.0865 14.5018 20.0867C14.6219 20.0865 14.7419 20.0795 14.8613 20.0658H14.9194C15.0408 20.0508 15.1613 20.0293 15.2804 20.0014H15.2923C15.4067 19.9752 15.5193 19.9417 15.6294 19.901L15.6831 19.88C15.7924 19.8395 15.8995 19.793 16.0037 19.7407C16.0306 19.7287 16.053 19.7138 16.0768 19.7003C16.1574 19.6583 16.2349 19.6119 16.314 19.5625L16.4035 19.5041L16.4288 19.4876C16.4989 19.4382 16.5646 19.3842 16.6302 19.3303C16.6585 19.3078 16.6869 19.2869 16.7122 19.2629C16.8039 19.1835 16.891 19.099 16.9732 19.0098C16.9924 18.9848 17.0128 18.9608 17.0344 18.9379C17.1015 18.86 17.1656 18.7791 17.2238 18.6967C17.2347 18.6845 17.2446 18.6715 17.2536 18.6578L20.2814 14.314V29.5142C20.2814 29.9576 20.3683 30.3966 20.5373 30.8062C20.7062 31.2158 20.9539 31.588 21.2661 31.9015C21.5782 32.215 21.9488 32.4637 22.3567 32.6334C22.7646 32.8031 23.2018 32.8904 23.6432 32.8904C24.0847 32.8904 24.5219 32.8031 24.9298 32.6334C25.3377 32.4637 25.7083 32.215 26.0204 31.9015C26.3326 31.588 26.5802 31.2158 26.7492 30.8062C26.9181 30.3966 27.0051 29.9576 27.0051 29.5142V4.74721C27.0056 4.55645 26.9897 4.36601 26.9574 4.17803Z" fill="#2C3B58"/>
<path d="M52.3505 7.94319C51.5729 7.94289 50.8128 7.711 50.1663 7.27684C49.5199 6.84268 49.0162 6.22575 48.719 5.50408C48.4217 4.78242 48.3442 3.98843 48.4964 3.22255C48.6485 2.45666 49.0233 1.75328 49.5735 1.20136C50.1237 0.649447 50.8246 0.27379 51.5874 0.121902C52.3502 -0.0299856 53.1407 0.0487218 53.859 0.348065C54.5773 0.647409 55.191 1.15395 55.6226 1.80361C56.0542 2.45327 56.2842 3.21687 56.2836 3.99785C56.2834 4.51628 56.1815 5.02959 55.9837 5.50847C55.786 5.98734 55.4962 6.4224 55.1309 6.78877C54.7657 7.15515 54.3322 7.44568 53.8551 7.64375C53.378 7.84183 52.8668 7.94358 52.3505 7.94319Z" fill="#2D9CDB"/>
<path d="M44.1658 10.603L37.7762 1.44058C37.3382 0.811588 36.6997 0.351347 35.9661 0.135798C35.2326 -0.0797501 34.4478 -0.0377269 33.7412 0.254934C33.0346 0.547596 32.4485 1.07341 32.0796 1.74562C31.7106 2.41782 31.5809 3.19626 31.7117 3.95249L38.3847 14.0855L40.7622 17.4946L40.7428 29.422C40.7391 29.8654 40.8224 30.3051 40.9879 30.7162C41.1534 31.1272 41.3979 31.5015 41.7074 31.8176C42.017 32.1338 42.3855 32.3856 42.792 32.5587C43.1984 32.7318 43.6348 32.8229 44.0763 32.8266C44.5178 32.8303 44.9557 32.7467 45.365 32.5805C45.7743 32.4143 46.147 32.1687 46.4618 31.8579C46.7766 31.547 47.0274 31.1769 47.1998 30.7687C47.3721 30.3606 47.4628 29.9223 47.4665 29.4789L47.4859 15.5354" fill="#2C3B58"/>
<path d="M86.7364 20.5036C85.9778 20.0346 85.065 19.8869 84.1981 20.0931C83.3313 20.2992 82.5813 20.8422 82.1127 21.603C81.0887 23.2714 79.5507 24.5587 77.732 25.2694C75.9133 25.9802 73.9134 26.0756 72.0358 25.5412C70.1583 25.0068 68.5056 23.8717 67.3287 22.3083C66.1519 20.7449 65.5151 18.8386 65.5151 16.8788C65.5151 14.919 66.1519 13.0126 67.3287 11.4493C68.5056 9.88588 70.1583 8.75082 72.0358 8.2164C73.9134 7.68198 75.9133 7.7774 77.732 8.48815C79.5507 9.1989 81.0887 10.4862 82.1127 12.1546C82.3421 12.5372 82.6448 12.8703 83.0032 13.1347C83.3617 13.399 83.7689 13.5893 84.2011 13.6945C84.6333 13.7997 85.082 13.8177 85.5212 13.7475C85.9604 13.6774 86.3814 13.5204 86.7597 13.2856C87.1381 13.0509 87.4663 12.7431 87.7254 12.3801C87.9845 12.0171 88.1693 11.6061 88.2691 11.1709C88.3689 10.7356 88.3817 10.2848 88.3068 9.84458C88.2318 9.40434 88.0707 8.9834 87.8326 8.60614C86.0397 5.68685 83.3474 3.43469 80.1643 2.19149C76.9812 0.948294 73.4811 0.781952 70.1953 1.71771C66.9096 2.65347 64.0175 4.64024 61.9581 7.37644C59.8987 10.1127 58.7844 13.4489 58.7844 16.8788C58.7844 20.3087 59.8987 23.6449 61.9581 26.3811C64.0175 29.1173 66.9096 31.1041 70.1953 32.0399C73.4811 32.9756 76.9812 32.8093 80.1643 31.5661C83.3474 30.3229 86.0397 28.0707 87.8326 25.1514C88.0647 24.774 88.2204 24.3544 88.291 23.9165C88.3615 23.4786 88.3454 23.031 88.2435 22.5994C88.1417 22.1677 87.9562 21.7605 87.6976 21.4009C87.439 21.0413 87.1124 20.7364 86.7364 20.5036Z" fill="#2C3B58"/>
<path d="M109.032 32.5666C105.929 32.5666 102.895 31.6425 100.315 29.911C97.7344 28.1796 95.7233 25.7186 94.5357 22.8393C93.3481 19.96 93.0374 16.7917 93.6428 13.7351C94.2482 10.6784 95.7426 7.87072 97.937 5.66701C100.131 3.46329 102.927 1.96254 105.971 1.35454C109.015 0.746536 112.169 1.05858 115.037 2.25123C117.904 3.44387 120.354 5.46354 122.078 8.05483C123.802 10.6461 124.723 13.6927 124.723 16.8092C124.718 20.9869 123.063 24.9921 120.122 27.9461C117.18 30.9002 113.192 32.5618 109.032 32.5666ZM109.032 7.80559C107.259 7.80559 105.525 8.33364 104.051 9.32297C102.577 10.3123 101.428 11.7185 100.749 13.3637C100.07 15.0089 99.8929 16.8192 100.239 18.5657C100.585 20.3122 101.439 21.9165 102.692 23.1757C103.946 24.4349 105.544 25.2924 107.283 25.6398C109.022 25.9872 110.825 25.8089 112.463 25.1274C114.101 24.446 115.501 23.292 116.486 21.8113C117.472 20.3307 117.997 18.5899 117.997 16.8092C117.995 14.4221 117.049 12.1336 115.368 10.4457C113.688 8.75784 111.409 7.80837 109.032 7.80559Z" fill="#2C3B58"/>
</svg>
