<svg width="74" height="43" viewBox="0 0 74 43" fill="none" xmlns="http://www.w3.org/2000/svg">
<g clip-path="url(#clip0_1779_879)">
<path d="M13.9399 4.33477L7.03158 8.70449C3.90893 10.6797 2.3476 11.6673 1.98813 13.2557C1.62866 14.8441 2.61147 16.4129 4.5771 19.5507L15.0013 36.1916C16.9669 39.3294 17.9497 40.8982 19.5304 41.2595C21.1112 41.6207 22.6725 40.6331 25.7951 38.6579L35.7313 32.373C38.854 30.3979 40.4153 29.4103 40.7748 27.8219C41.1342 26.2335 40.1514 24.6645 38.1858 21.5267L29.6676 7.92863C29.2415 7.24841 29.0284 6.90835 28.7109 6.68227C28.3932 6.4562 28.0033 6.36705 27.2233 6.18885L16.8925 3.82824C16.1125 3.65004 15.7225 3.56089 15.3389 3.62679C14.9552 3.69258 14.6167 3.90661 13.9399 4.33477Z" fill="white" stroke="#2D9CDB" stroke-width="2"/>
<path d="M13.6553 4.51459L17.825 11.1709C18.8078 12.7399 19.2991 13.5243 20.0895 13.7049C20.8799 13.8855 21.6605 13.3917 23.2218 12.4041L29.846 8.21415" stroke="#2D9CDB" stroke-width="2"/>
<path d="M23.5184 17.3779L13.131 23.1478C12.5538 23.4684 12.3446 24.1985 12.6636 24.7785L12.6636 24.7785C12.9827 25.3584 13.7092 25.5687 14.2864 25.2481L24.6738 19.4782C25.251 19.1576 25.4602 18.4275 25.1411 17.8476L25.1411 17.8475C24.8221 17.2676 24.0956 17.0573 23.5184 17.3779Z" fill="#2D9CDB"/>
<path d="M22.4228 23.313L15.5197 27.1475C14.9425 27.4681 14.7332 28.1982 15.0523 28.7782L15.0523 28.7782C15.3713 29.3581 16.0979 29.5684 16.675 29.2478L23.5782 25.4133C24.1554 25.0927 24.3646 24.3626 24.0456 23.7827L24.0456 23.7827C23.7265 23.2027 23 22.9924 22.4228 23.313Z" fill="#2D9CDB"/>
<path d="M64.6863 5.00693L56.9446 2.4059C53.4451 1.23026 51.6955 0.642338 50.2449 1.36949C48.7943 2.09664 48.2093 3.85486 47.0393 7.3712L40.8342 26.0195C39.6643 29.536 39.0792 31.2941 39.8028 32.7518C40.5265 34.2094 42.2762 34.7973 45.7755 35.973L56.9105 39.7141C60.4098 40.8899 62.1595 41.4777 63.61 40.7505C65.0607 40.0234 65.6457 38.2652 66.8157 34.7488L71.8863 19.5102C72.1398 18.7479 72.2667 18.3668 72.2395 17.9767C72.2122 17.5864 72.0337 17.2269 71.6766 16.5077L66.9473 6.98117C66.5903 6.26198 66.4117 5.90233 66.1179 5.64577C65.8241 5.38931 65.4448 5.26181 64.6863 5.00693Z" fill="white" stroke="#2D9CDB" stroke-width="2"/>
<path d="M64.3674 4.89996L61.8854 12.3593C61.3004 14.1175 61.0078 14.9966 61.3697 15.7254C61.7315 16.4543 62.6063 16.7482 64.356 17.336L71.7793 19.8301" stroke="#2D9CDB" stroke-width="2"/>
<path d="M54.2769 30.3963C58.2337 30.3963 61.4414 27.1731 61.4414 23.197C61.4414 19.2209 58.2337 15.9976 54.2769 15.9976C50.32 15.9976 47.1123 19.2209 47.1123 23.197C47.1123 27.1731 50.32 30.3963 54.2769 30.3963Z" fill="#2D9CDB"/>
<path d="M24.7029 40.7765C17.1718 42.8076 21.5315 1.77944 21.5315 1.77944L44.8788 1.37317L53.6375 11.5287L53.6381 41.1827C53.6381 41.1827 32.2341 38.7454 24.7029 40.7765Z" fill="white"/>
<path d="M39.8712 3.20648H31.3541C27.5044 3.20648 25.5794 3.20648 24.3835 4.38275C23.1875 5.55891 23.1875 7.45206 23.1875 11.2383V31.3177C23.1875 35.1039 23.1875 36.9969 24.3835 38.1732C25.5794 39.3493 27.5044 39.3493 31.3541 39.3493H43.6041C47.454 39.3493 49.3788 39.3493 50.5749 38.1732C51.7709 36.9969 51.7709 35.1039 51.7709 31.3177V14.9096C51.7709 14.0888 51.7709 13.6785 51.6154 13.3095C51.46 12.9405 51.1649 12.6503 50.5749 12.07L42.7585 4.38275C42.1683 3.80237 41.8733 3.51218 41.4981 3.35933C41.123 3.20648 40.7056 3.20648 39.8712 3.20648Z" fill="white" stroke="#2D9CDB" stroke-width="2"/>
<path d="M39.5205 3.20648V11.2383C39.5205 13.1313 39.5205 14.0779 40.1185 14.666C40.7165 15.2541 41.6789 15.2541 43.6039 15.2541H51.7705" stroke="#2D9CDB" stroke-width="2"/>
<path d="M37.8809 24.8329C39.2062 24.8329 40.2907 23.7665 40.2907 22.4629C40.2907 21.1595 39.2062 20.0929 37.8809 20.0929C36.5555 20.0929 35.471 21.1595 35.471 22.4629C35.471 23.7665 36.5555 24.8329 37.8809 24.8329ZM37.8809 21.6729C38.3227 21.6729 38.6841 22.0285 38.6841 22.4629C38.6841 22.8975 38.3227 23.2529 37.8809 23.2529C37.439 23.2529 37.0776 22.8975 37.0776 22.4629C37.0776 22.0285 37.439 21.6729 37.8809 21.6729ZM42.7005 28.4512C42.7005 26.4761 39.5115 25.6229 37.8809 25.6229C36.2502 25.6229 33.0611 26.4761 33.0611 28.4512V29.573H42.7005V28.4512ZM35.0533 27.993C35.6477 27.59 36.8447 27.203 37.8809 27.203C38.917 27.203 40.114 27.59 40.7084 27.993H35.0533ZM43.5038 17.7228H32.2579C31.3662 17.7228 30.6514 18.4339 30.6514 19.3029V30.363C30.6514 31.232 31.3662 31.943 32.2579 31.943H43.5038C44.3874 31.943 45.1103 31.232 45.1103 30.363V19.3029C45.1103 18.4339 44.3874 17.7228 43.5038 17.7228ZM43.5038 30.363H32.2579V19.3029H43.5038V30.363Z" fill="#2D9CDB"/>
</g>
<defs>
<clipPath id="clip0_1779_879">
<rect width="74" height="43" fill="white"/>
</clipPath>
</defs>
</svg>
